<?xml version="1.0" encoding="UTF-8" standalone="no"?>
<!-- Created with Inkscape (http://www.inkscape.org/) -->

<svg
   xmlns:dc="http://purl.org/dc/elements/1.1/"
   xmlns:cc="http://creativecommons.org/ns#"
   xmlns:rdf="http://www.w3.org/1999/02/22-rdf-syntax-ns#"
   xmlns:svg="http://www.w3.org/2000/svg"
   xmlns="http://www.w3.org/2000/svg"
   version="1.1"
   width="86"
   height="122"
   id="svg3071">
  <metadata
     id="metadata3077">
    <rdf:RDF>
      <cc:Work
         rdf:about="">
        <dc:format>image/svg+xml</dc:format>
        <dc:type
           rdf:resource="http://purl.org/dc/dcmitype/StillImage" />
        <dc:title></dc:title>
      </cc:Work>
    </rdf:RDF>
  </metadata>
  <defs
     id="defs3075" />
  <path
     d="m 39.046469,118.4491 -3,-2.54096 3.20034,1.54593 c 4.140141,1.9999 3.96266,2.09929 3.489453,-1.95407 -0.250103,-2.14231 0.02174,-3.5 0.700801,-3.5 0.610173,0 1.109406,1.58656 1.109406,3.52568 l 0,3.52568 3.09293,-1.59942 c 4.393324,-2.27187 4.709994,-1.12323 0.392608,1.42409 -4.575428,2.69957 -5.336942,2.66339 -8.985538,-0.42693 z m -7.5,0.79291 c 0,-0.66165 2.477765,-5.59928 5.506144,-10.97251 L 42.558757,98.5 32.052613,98.216168 21.546469,97.932337 l 0,-6.367393 c 0,-6.259165 -0.06163,-6.403756 -3.626032,-8.506803 -4.303146,-2.538919 -3.902414,-3.899892 0.480888,-1.633198 l 3.040716,1.572416 0.367232,-5.24868 0.367231,-5.248679 0.184983,5.25 c 0.197613,5.608481 0.592112,6.012998 3.626112,3.718197 1.067621,-0.807509 2.642621,-1.460616 3.5,-1.45135 0.884897,0.0096 0.153741,0.916714 -1.69113,2.098201 -1.7875,1.144745 -3.25,2.261338 -3.25,2.481317 0,0.219979 2.1375,1.742238 4.75,3.382798 2.6125,1.64056 4.075,2.989704 3.25,2.998099 -0.825,0.0084 -2.973376,-0.883056 -4.77417,-1.981 -4.67259,-2.848879 -5.335002,-2.550379 -5.00135,2.253738 l 0.295168,4.25 9.336443,0.2888 c 5.135043,0.15884 9.180622,-0.06616 8.990176,-0.5 C 39.956182,92.016312 22.163024,63 21.592848,63 21.193906,63 20.316511,64.2375 19.643082,65.75 16.939224,71.822775 8.0959983,87.148589 7.8029873,86.269557 7.6307703,85.752905 10.4276,80.080209 14.018167,73.663568 c 3.590566,-6.416642 6.528302,-11.890934 6.528302,-12.165095 0,-0.27416 -3.7125,-0.551715 -8.25,-0.616788 -9.0691827,-0.130063 -6.6608587,-1.545652 3,-1.76337 2.8875,-0.06507 5.25,-0.352963 5.25,-0.639755 0,-0.286792 -1.049775,-2.199292 -2.332833,-4.25 C 11.817835,44.006174 8.3951523,37.817983 8.8727823,37.340352 9.4674573,36.745677 12.540557,41.467038 17.601024,50.75 19.474926,54.1875 21.345101,57 21.75697,57 c 0.411868,0 1.61389,-1.6875 2.67116,-3.75 1.05727,-2.0625 5.073813,-9.2625 8.92565,-16 L 40.357122,25 31.951796,25 c -4.62293,0 -8.405498,-0.3375 -8.405707,-0.75 -2.09e-4,-0.4125 3.824791,-0.68946 8.5,-0.615466 4.675209,0.07399 8.50038,-0.04745 8.50038,-0.269871 0,-0.222424 -1.207509,-2.307964 -2.683352,-4.634535 C 33.313688,11.558254 28.475948,2.7371879 28.87387,2.3392654 c 0.208115,-0.2081152 2.77417,3.567912 5.702343,8.3911716 2.928174,4.82326 5.864753,9.579213 6.525731,10.568786 1.059718,1.586536 1.887848,0.613167 7.005585,-8.234234 3.192093,-5.5184012 5.988423,-9.8488395 6.214066,-9.6231962 0.527586,0.527586 -8.621518,17.3452382 -9.848738,18.1037022 -2.405465,1.486659 -0.205403,1.977783 8.073612,1.802289 4.960202,-0.105143 9,0.222853 9,0.73072 0,0.506823 -3.825,0.921496 -8.5,0.921496 -4.675,0 -8.5,0.209816 -8.5,0.466259 0,0.256442 1.6875,3.105019 3.75,6.330171 2.0625,3.225152 6.225,10.199532 9.25,15.498622 3.025,5.29909 5.725,9.645435 6,9.658545 0.275,0.01311 2.967284,-4.471086 5.982853,-9.96488 C 72.544891,41.494923 75.373224,37 75.814506,37 c 0.928007,0 0.157805,1.518093 -6.435457,12.684499 -2.657919,4.501475 -4.83258,8.421455 -4.83258,8.711068 0,0.289612 3.9375,0.676551 8.75,0.859865 l 8.75,0.333298 -8.75,0.205635 c -4.8125,0.113099 -8.75,0.460871 -8.75,0.772827 0,0.311955 3.205662,5.824455 7.123693,12.25 3.918031,6.425544 7.319589,12.020308 7.559017,12.432808 0.239428,0.4125 0.07127,0.742501 -0.373693,0.733336 -0.444959,-0.0092 -4.184017,-5.63297 -8.309017,-12.497344 l -7.5,-12.480682 -19.25,-0.0027 c -10.5875,-0.0015 -19.25,0.204004 -19.25,0.456587 0,0.252583 1.226762,2.49023 2.726138,4.97255 l 2.726137,4.513307 12.941979,0.277451 c 9.260556,0.198528 13.060089,0.63302 13.357195,1.52745 0.316875,0.953943 -2.446666,1.25 -11.668116,1.25 -6.645833,0 -12.083333,0.265502 -12.083333,0.590004 0,0.324503 2.808973,5.274503 6.242161,11 l 6.242162,10.409996 8.757838,0 c 11.242448,0 11.522203,1.827267 0.338515,2.211067 l -8.419325,0.288933 5.919325,9.973655 c 3.255628,5.48552 5.919324,10.41302 5.919324,10.95 0,1.55481 -1.205011,-0.19192 -7.363414,-10.67366 -3.150662,-5.3625 -5.909234,-9.749995 -6.130161,-9.749995 -0.220926,0 -2.527318,3.937495 -5.125316,8.749995 -5.563036,10.3049 -7.381109,13.13555 -7.381109,11.49201 z M 60.840331,58.372805 c 1.160462,-1.160462 -5.38228,-9.552854 -6.971891,-8.942862 -0.81705,0.313531 -6.736242,0.573523 -13.153758,0.577759 l -11.668213,0.0077 -2.25,3.940416 c -1.2375,2.167229 -2.25,4.188763 -2.25,4.492298 0,0.769658 35.522603,0.695946 36.293862,-0.07531 z M 53.546469,46.081772 c 0,-0.505026 -2.548129,-5.002869 -5.662509,-9.995207 l -5.662509,-9.076979 -4.403677,7.745207 C 35.395752,39.014657 32.993881,42.9275 32.480283,43.45 c -0.513598,0.5225 -0.933814,1.535 -0.933814,2.25 0,0.987879 2.641026,1.3 11,1.3 6.05,0 11,-0.413203 11,-0.918228 z m -26.5,66.271008 c -1.65,-0.86193 -3.5625,-2.27992 -4.25,-3.15109 C 21.311919,107.32053 21.108019,99 22.546469,99 c 0.55,0 1,1.8 1,4 0,2.2 0.234648,4 0.52144,4 0.286792,0 2.32094,-1.19085 4.520328,-2.64634 2.199388,-1.45548 4.250068,-2.39516 4.557066,-2.08816 0.306997,0.307 -1.577477,1.80975 -4.187721,3.33946 -4.173349,2.44574 -4.530439,2.90878 -2.959941,3.83816 6.042514,3.57579 6.905143,5.96889 1.048828,2.90966 z m 32.408637,-1.56827 c 3.063261,-1.96073 3.228565,-2.28832 1.631436,-3.23315 -0.977462,-0.57825 -2.736348,-1.85946 -3.908638,-2.84713 -1.790423,-1.50847 -1.45147,-1.46522 2.118565,0.27032 l 4.25,2.0661 0,-10.520326 C 63.546469,90.734146 63.312527,86 63.026597,86 c -0.285929,0 -2.353445,1.157484 -4.59448,2.572187 -2.241034,1.414703 -4.332092,2.314703 -4.646794,2 -0.7034,-0.7034 -0.738215,-0.674805 4.685901,-3.848728 l 4.424754,-2.589147 -3.674754,-1.752368 c -2.021115,-0.963803 -3.674755,-2.128169 -3.674755,-2.58748 0,-0.459312 1.77658,0.07123 3.947956,1.178985 l 3.947957,2.014097 0.367061,-5.243773 0.367061,-5.243773 0.184983,5.27568 0.184982,5.27568 3.09293,-1.599416 c 4.36143,-2.255383 4.724836,-1.13199 0.449768,1.390362 l -3.542698,2.090243 0,12.048424 0,12.048427 -3.25,1.98156 c -4.434098,2.70352 -6.098999,2.49877 -1.841363,-0.22645 z M 48.610076,85 c 0,-0.825 0.660688,-2.373508 1.468196,-3.44113 1.109006,-1.466237 1.468197,-1.574158 1.468197,-0.441129 0,0.825 -0.660688,2.373508 -1.468197,3.441129 C 48.969266,86.025108 48.610076,86.133029 48.610076,85 z M 5.0174753,75.668906 c -3.913058,-2.189983 -3.972442,-2.309583 -4.06937098,-8.19566 -0.07953,-4.829266 -0.02115,-5.063539 0.30479098,-1.223246 0.221735,2.6125 0.583697,4.75 0.804358,4.75 0.220661,0 2.671005,-1.338324 5.445209,-2.974053 6.3306637,-3.732693 6.6698637,-2.555413 0.404276,1.403145 l -4.636153,2.929093 2.151321,1.742034 c 1.183226,0.958119 2.7078,1.94092 3.387941,2.184003 0.680142,0.243082 0.998574,0.704123 0.707628,1.024533 -0.290946,0.320411 -2.315946,-0.417522 -4.5,-1.639849 z M 79.296469,74.884952 c 3.659298,-2.343476 4.057527,-3.489228 1.5,-4.315682 -0.9625,-0.311028 -3.1,-1.726009 -4.75,-3.144403 -2.786682,-2.395524 -2.595155,-2.357183 2.693531,0.539199 l 5.693531,3.118099 0.376221,-4.791083 0.376221,-4.791082 0.180248,5.565859 c 0.177825,5.491024 0.127997,5.595225 -3.705907,7.75 -4.936254,2.77433 -6.667021,2.824919 -2.363845,0.06909 z M 42.625416,63.416667 c 0.04798,-1.164943 0.284941,-1.4019 0.604167,-0.604167 0.288871,0.721875 0.253344,1.584375 -0.07895,1.916667 -0.332292,0.332291 -0.568641,-0.258334 -0.52522,-1.3125 z M 0.71457632,54.818094 c -0.157189,-6.247921 0.0105,-6.805658 2.58189198,-8.587275 1.5125,-1.047953 3.560872,-2.198441 4.551938,-2.556639 2.8192127,-1.018943 0.97615,1.130655 -2.519172,2.938156 l -3.090409,1.598113 4.653821,2.896612 c 2.559602,1.593137 4.6538227,3.106663 4.6538227,3.363391 0,0.676586 -3.0396077,-0.565203 -6.5000007,-2.655484 l -3,-1.812177 -0.581892,5.748604 L 0.88268332,61.5 0.71457632,54.818094 z M 83.546469,53.5 c 0,-4.10338 -0.194525,-4.16093 -4.684565,-1.385932 -1.881348,1.162737 -3.661038,1.873662 -3.954867,1.579834 -0.293828,-0.293829 1.301375,-1.582659 3.544897,-2.864068 2.243522,-1.281409 4.082597,-2.595102 4.086833,-2.919319 0.0042,-0.324217 -1.17545,-1.128565 -2.621524,-1.787441 -1.446074,-0.658875 -2.377229,-1.449952 -2.069234,-1.757948 0.307996,-0.307996 1.941148,0.255876 3.629227,1.253048 2.745338,1.621712 3.069233,2.317935 3.069233,6.597434 0,2.631415 -0.225,4.784392 -0.5,4.784392 -0.275,0 -0.5,-1.575 -0.5,-3.5 z m -62.25,-7.073775 c -0.4125,-0.417757 -0.75,-2.308342 -0.75,-4.2013 0,-3.238421 -0.162456,-3.405076 -2.75,-2.821089 l -2.75,0.620651 2.75,-2.299808 c 2.189453,-1.831026 2.75,-3.146421 2.75,-6.453227 0,-2.28438 0.45,-4.431533 1,-4.771452 0.610395,-0.377245 1,1.145041 1,3.907258 l 0,4.525291 3.542698,-2.090243 c 1.948484,-1.149633 3.805198,-1.827743 4.126032,-1.50691 0.320833,0.320834 -1.071711,1.559834 -3.094542,2.753333 l -3.677876,2.17 3.051844,1.855937 c 1.678514,1.020765 3.051844,2.045423 3.051844,2.277016 0,0.731784 -4.006194,-0.592686 -4.574601,-1.512389 -1.277052,-2.066314 -2.336692,-0.564725 -2.620608,3.713599 -0.167635,2.52609 -0.642291,4.25109 -1.054791,3.833333 z m 41.430248,-3.783214 c -0.155577,-4.192194 -0.419777,-4.760777 -1.930248,-4.154066 -3.912047,1.571353 -4.661584,1.605912 -2.75,0.126796 1.1,-0.851141 2.5625,-2.030619 3.25,-2.621062 0.6875,-0.590442 1.25,-3.15579 1.25,-5.700772 0,-5.858406 1.037112,-5.081662 1.156498,0.866158 0.07997,3.984133 0.450771,4.641543 3.716168,6.588568 2.212011,1.318934 2.967542,2.180106 1.936351,2.2071 C 68.425445,39.980083 67.386388,39.55 67.046469,39 c -0.339919,-0.55 -1.24182,-1 -2.004226,-1 -0.934468,0 -1.508245,1.5479 -1.760735,4.75 L 62.906965,47.5 62.726717,42.643011 z M 56.796469,33.01096 c -4.560793,-2.780769 -4.055142,-3.46236 0.75,-1.01096 3.77377,1.925234 4.944659,3.004708 3.25,2.996262 -0.4125,-0.0021 -2.2125,-0.895442 -4,-1.985302 z m -35.5,-8.586359 c -0.4125,-0.416864 -0.75,-3.300071 -0.75,-6.407127 0,-5.521787 0.08764,-5.69845 3.886155,-7.833333 4.935557,-2.7739385 6.667279,-2.8250874 2.365049,-0.06986 -3.732789,2.390551 -3.526527,3.162371 1.563594,5.850872 2.026861,1.070547 3.010202,1.964656 2.185202,1.986908 -0.825,0.02225 -2.940637,-0.83795 -4.701416,-1.91156 l -3.201417,-1.952018 -0.298583,5.547023 c -0.164221,3.050868 -0.636084,5.205959 -1.048584,4.789095 z M 62.739149,19.75 C 62.633175,16.5875 62.347191,14 62.103629,14 c -0.243562,0 -2.062776,0.955786 -4.042698,2.123968 -1.979922,1.168183 -3.849252,1.874576 -4.154066,1.569762 -0.304814,-0.304814 1.377521,-1.539702 3.738523,-2.744195 4.553497,-2.32302 4.567651,-2.218624 -0.762297,-5.6224399 -1.733005,-1.1067328 -1.723787,-1.14602 0.163378,-0.6963679 1.1,0.2620954 3.036375,1.2598474 4.303056,2.2172268 2.066088,1.561585 2.265976,2.404932 1.94268,8.196368 L 62.931828,25.5 62.739149,19.75 z M 41.735553,7.7148162 C 41.554737,2.1826044 41.455269,1.9784413 39.460823,3.0458365 36.405456,4.6810191 36.056374,3.5511425 39.017502,1.6109371 41.349284,0.08309477 41.796975,0.07818157 44.64164,1.5492151 46.341519,2.4282568 47.504052,3.3757505 47.225046,3.6547567 46.94604,3.9337628 45.80179,3.6718267 44.682268,3.0726775 42.759724,2.043763 42.626739,2.3028439 42.285706,7.7416572 L 41.924638,13.5 41.735553,7.7148162 z"
     id="path3085"
     style="fill:#ffffff;fill-opacity:0.99215686" />
</svg>
