<?xml version="1.0" encoding="UTF-8" standalone="no"?>
<!-- Created with Inkscape (http://www.inkscape.org/) -->

<svg
   xmlns:dc="http://purl.org/dc/elements/1.1/"
   xmlns:cc="http://creativecommons.org/ns#"
   xmlns:rdf="http://www.w3.org/1999/02/22-rdf-syntax-ns#"
   xmlns:svg="http://www.w3.org/2000/svg"
   xmlns="http://www.w3.org/2000/svg"
   version="1.1"
   width="86"
   height="122"
   id="svg3071">
  <metadata
     id="metadata3077">
    <rdf:RDF>
      <cc:Work
         rdf:about="">
        <dc:format>image/svg+xml</dc:format>
        <dc:type
           rdf:resource="http://purl.org/dc/dcmitype/StillImage" />
        <dc:title></dc:title>
      </cc:Work>
    </rdf:RDF>
  </metadata>
  <defs
     id="defs3075" />
  <path
     d="m 39.046469,118.4491 -3,-2.54096 3.20034,1.54593 c 4.140141,1.9999 3.96266,2.09929 3.489453,-1.95407 -0.250103,-2.14231 0.02174,-3.5 0.700801,-3.5 0.610173,0 1.109406,1.58656 1.109406,3.52568 l 0,3.52568 3.09293,-1.59942 c 4.393324,-2.27187 4.709994,-1.12323 0.392608,1.42409 -4.575428,2.69957 -5.336942,2.66339 -8.985538,-0.42693 z m -7.5,0.79291 c 0,-0.66165 2.477765,-5.59928 5.506144,-10.97251 L 42.558757,98.5 32.052613,98.216168 21.546469,97.932337 l 0,-6.367393 c 0,-6.259165 -0.06163,-6.403756 -3.626032,-8.506803 -4.303146,-2.538919 -3.902414,-3.899892 0.480888,-1.633198 l 3.040716,1.572416 0.367232,-5.24868 0.367231,-5.248679 0.184983,5.25 c 0.197613,5.608481 0.592112,6.012998 3.626112,3.718197 1.067621,-0.807509 2.642621,-1.460616 3.5,-1.45135 0.884897,0.0096 0.153741,0.916714 -1.69113,2.098201 -1.7875,1.144745 -3.25,2.261338 -3.25,2.481317 0,0.219979 2.1375,1.742238 4.75,3.382798 2.6125,1.64056 4.075,2.989704 3.25,2.998099 -0.825,0.0084 -2.973376,-0.883056 -4.77417,-1.981 -4.67259,-2.848879 -5.335002,-2.550379 -5.00135,2.253738 l 0.295168,4.25 9.336443,0.2888 c 5.135043,0.15884 9.180622,-0.06616 8.990176,-0.5 C 39.956182,92.016312 22.163024,63 21.592848,63 21.193906,63 20.316511,64.2375 19.643082,65.75 16.939224,71.822775 8.0959983,87.148589 7.8029873,86.269557 7.6307703,85.752905 10.4276,80.080209 14.018167,73.663568 c 3.590566,-6.416642 6.528302,-11.890934 6.528302,-12.165095 0,-0.27416 -3.7125,-0.551715 -8.25,-0.616788 -9.0691827,-0.130063 -6.6608587,-1.545652 3,-1.76337 2.8875,-0.06507 5.25,-0.352963 5.25,-0.639755 0,-0.286792 -1.049775,-2.199292 -2.332833,-4.25 C 11.817835,44.006174 8.3951523,37.817983 8.8727823,37.340352 9.4674573,36.745677 12.540557,41.467038 17.601024,50.75 19.474926,54.1875 21.345101,57 21.75697,57 c 0.411868,0 1.61389,-1.6875 2.67116,-3.75 1.05727,-2.0625 5.073813,-9.2625 8.92565,-16 L 40.357122,25 31.951796,25 c -4.62293,0 -8.405498,-0.3375 -8.405707,-0.75 -2.09e-4,-0.4125 3.824791,-0.68946 8.5,-0.615466 4.675209,0.07399 8.50038,-0.04745 8.50038,-0.269871 0,-0.222424 -1.207509,-2.307964 -2.683352,-4.634535 C 33.313688,11.558254 28.475948,2.7371879 28.87387,2.3392654 c 0.208115,-0.2081152 2.77417,3.567912 5.702343,8.3911716 2.928174,4.82326 5.864753,9.579213 6.525731,10.568786 1.059718,1.586536 1.887848,0.613167 7.005585,-8.234234 3.192093,-5.5184012 5.988423,-9.8488395 6.214066,-9.6231962 0.527586,0.527586 -8.621518,17.3452382 -9.848738,18.1037022 -2.405465,1.486659 -0.205403,1.977783 8.073612,1.802289 4.960202,-0.105143 9,0.222853 9,0.73072 0,0.506823 -3.825,0.921496 -8.5,0.921496 -4.675,0 -8.5,0.209816 -8.5,0.466259 0,0.256442 1.6875,3.105019 3.75,6.330171 2.0625,3.225152 6.225,10.199532 9.25,15.498622 3.025,5.29909 5.725,9.645435 6,9.658545 0.275,0.01311 2.967284,-4.471086 5.982853,-9.96488 C 72.544891,41.494923 75.373224,37 75.814506,37 c 0.928007,0 0.157805,1.518093 -6.435457,12.684499 -2.657919,4.501475 -4.83258,8.421455 -4.83258,8.711068 0,0.289612 3.9375,0.676551 8.75,0.859865 l 8.75,0.333298 -8.75,0.205635 c -4.8125,0.113099 -8.75,0.460871 -8.75,0.772827 0,0.311955 3.205662,5.824455 7.123693,12.25 3.918031,6.425544 7.319589,12.020308 7.559017,12.432808 0.239428,0.4125 0.07127,0.742501 -0.373693,0.733336 -0.444959,-0.0092 -4.184017,-5.63297 -8.309017,-12.497344 l -7.5,-12.480682 -19.25,-0.0027 c -10.5875,-0.0015 -19.25,0.204004 -19.25,0.456587 0,0.252583 1.226762,2.49023 2.726138,4.97255 l 2.726137,4.513307 12.941979,0.277451 c 9.260556,0.198528 13.060089,0.63302 13.357195,1.52745 0.316875,0.953943 -2.446666,1.25 -11.668116,1.25 -6.645833,0 -12.083333,0.265502 -12.083333,0.590004 0,0.324503 2.808973,5.274503 6.242161,11 l 6.242162,10.409996 8.757838,0 c 11.242448,0 11.522203,1.827267 0.338515,2.211067 l -8.419325,0.288933 5.919325,9.973655 c 3.255628,5.48552 5.919324,10.41302 5.919324,10.95 0,1.55481 -1.205011,-0.19192 -7.363414,-10.67366 -3.150662,-5.3625 -5.909234,-9.749995 -6.130161,-9.749995 -0.220926,0 -2.527318,3.937495 -5.125316,8.749995 -5.563036,10.3049 -7.381109,13.13555 -7.381109,11.49201 z M 60.840331,58.372805 c 1.160462,-1.160462 -5.38228,-9.552854 -6.971891,-8.942862 -0.81705,0.313531 -6.736242,0.573523 -13.153758,0.577759 l -11.668213,0.0077 -2.25,3.940416 c -1.2375,2.167229 -2.25,4.188763 -2.25,4.492298 0,0.769658 35.522603,0.695946 36.293862,-0.07531 z M 53.546469,46.081772 c 0,-0.505026 -2.548129,-5.002869 -5.662509,-9.995207 l -5.662509,-9.076979 -4.403677,7.745207 C 35.395752,39.014657 32.993881,42.9275 32.480283,43.45 c -0.513598,0.5225 -0.933814,1.535 -0.933814,2.25 0,0.987879 2.641026,1.3 11,1.3 6.05,0 11,-0.413203 11,-0.918228 z m -26.5,66.271008 c -1.65,-0.86193 -3.5625,-2.27992 -4.25,-3.15109 C 21.311919,107.32053 21.108019,99 22.546469,99 c 0.55,0 1,1.8 1,4 0,2.2 0.234648,4 0.52144,4 0.286792,0 2.32094,-1.19085 4.520328,-2.64634 2.199388,-1.45548 4.250068,-2.39516 4.557066,-2.08816 0.306997,0.307 -1.577477,1.80975 -4.187721,3.33946 -4.173349,2.44574 -4.530439,2.90878 -2.959941,3.83816 6.042514,3.57579 6.905143,5.96889 1.048828,2.90966 z m 32.408637,-1.56827 c 3.063261,-1.96073 3.228565,-2.28832 1.631436,-3.23315 -0.977462,-0.57825 -2.736348,-1.85946 -3.908638,-2.84713 -1.790423,-1.50847 -1.45147,-1.46522 2.118565,0.27032 l 4.25,2.0661 0,-10.520326 C 63.546469,90.734146 63.312527,86 63.026597,86 c -0.285929,0 -2.353445,1.157484 -4.59448,2.572187 -2.241034,1.414703 -4.332092,2.314703 -4.646794,2 -0.7034,-0.7034 -0.738215,-0.674805 4.685901,-3.848728 l 4.424754,-2.589147 -3.674754,-1.752368 c -2.021115,-0.963803 -3.674755,-2.128169 -3.674755,-2.58748 0,-0.459312 1.77658,0.07123 3.947956,1.178985 l 3.947957,2.014097 0.367061,-5.243773 0.367061,-5.243773 0.184983,5.27568 0.184982,5.27568 3.09293,-1.599416 c 4.36143,-2.255383 4.724836,-1.13199 0.449768,1.390362 l -3.542698,2.090243 0,12.048424 0,12.048427 -3.25,1.98156 c -4.434098,2.70352 -6.098999,2.49877 -1.841363,-0.22645 z M 48.610076,85 c 0,-0.825 0.660688,-2.373508 1.468196,-3.44113 1.109006,-1.466237 1.468197,-1.574158 1.468197,-0.441129 0,0.825 -0.660688,2.373508 -1.468197,3.441129 C 48.969266,86.025108 48.610076,86.133029 48.610076,85 z M 5.0174753,75.668906 c -3.913058,-2.189983 -3.972442,-2.309583 -4.06937098,-8.19566 -0.07953,-4.829266 -0.02115,-5.063539 0.30479098,-1.223246 0.221735,2.6125 0.583697,4.75 0.804358,4.75 0.220661,0 2.671005,-1.338324 5.445209,-2.974053 6.3306637,-3.732693 6.6698637,-2.555413 0.404276,1.403145 l -4.636153,2.929093 2.151321,1.742034 c 1.183226,0.958119 2.7078,1.94092 3.387941,2.184003 0.680142,0.243082 0.998574,0.704123 0.707628,1.024533 -0.290946,0.320411 -2.315946,-0.417522 -4.5,-1.639849 z M 79.296469,74.884952 c 3.659298,-2.343476 4.057527,-3.489228 1.5,-4.315682 -0.9625,-0.311028 -3.1,-1.726009 -4.75,-3.144403 -2.786682,-2.395524 -2.595155,-2.357183 2.693531,0.539199 l 5.693531,3.118099 0.376221,-4.791083 0.376221,-4.791082 0.180248,5.565859 c 0.177825,5.491024 0.127997,5.595225 -3.705907,7.75 -4.936254,2.77433 -6.667021,2.824919 -2.363845,0.06909 z M 42.625416,63.416667 c 0.04798,-1.164943 0.284941,-1.4019 0.604167,-0.604167 0.288871,0.721875 0.253344,1.584375 -0.07895,1.916667 -0.332292,0.332291 -0.568641,-0.258334 -0.52522,-1.3125 z M 0.71457632,54.818094 c -0.157189,-6.247921 0.0105,-6.805658 2.58189198,-8.587275 1.5125,-1.047953 3.560872,-2.198441 4.551938,-2.556639 2.8192127,-1.018943 0.97615,1.130655 -2.519172,2.938156 l -3.090409,1.598113 4.653821,2.896612 c 2.559602,1.593137 4.6538227,3.106663 4.6538227,3.363391 0,0.676586 -3.0396077,-0.565203 -6.5000007,-2.655484 l -3,-1.812177 -0.581892,5.748604 L 0.88268332,61.5 0.71457632,54.818094 z M 83.546469,53.5 c 0,-4.10338 -0.194525,-4.16093 -4.684565,-1.385932 -1.881348,1.162737 -3.661038,1.873662 -3.954867,1.579834 -0.293828,-0.293829 1.301375,-1.582659 3.544897,-2.864068 2.243522,-1.281409 4.082597,-2.595102 4.086833,-2.919319 0.0042,-0.324217 -1.17545,-1.128565 -2.621524,-1.787441 -1.446074,-0.658875 -2.377229,-1.449952 -2.069234,-1.757948 0.307996,-0.307996 1.941148,0.255876 3.629227,1.253048 2.745338,1.621712 3.069233,2.317935 3.069233,6.597434 0,2.631415 -0.225,4.784392 -0.5,4.784392 -0.275,0 -0.5,-1.575 -0.5,-3.5 z m -62.25,-7.073775 c -0.4125,-0.417757 -0.75,-2.308342 -0.75,-4.2013 0,-3.238421 -0.162456,-3.405076 -2.75,-2.821089 l -2.75,0.620651 2.75,-2.299808 c 2.189453,-1.831026 2.75,-3.146421 2.75,-6.453227 0,-2.28438 0.45,-4.431533 1,-4.771452 0.610395,-0.377245 1,1.145041 1,3.907258 l 0,4.525291 3.542698,-2.090243 c 1.948484,-1.149633 3.805198,-1.827743 4.126032,-1.50691 0.320833,0.320834 -1.071711,1.559834 -3.094542,2.753333 l -3.677876,2.17 3.051844,1.855937 c 1.678514,1.020765 3.051844,2.045423 3.051844,2.277016 0,0.731784 -4.006194,-0.592686 -4.574601,-1.512389 -1.277052,-2.066314 -2.336692,-0.564725 -2.620608,3.713599 -0.167635,2.52609 -0.642291,4.25109 -1.054791,3.833333 z m 41.430248,-3.783214 c -0.155577,-4.192194 -0.419777,-4.760777 -1.930248,-4.154066 -3.912047,1.571353 -4.661584,1.605912 -2.75,0.126796 1.1,-0.851141 2.5625,-2.030619 3.25,-2.621062 0.6875,-0.590442 1.25,-3.15579 1.25,-5.700772 0,-5.858406 1.037112,-5.081662 1.156498,0.866158 0.07997,3.984133 0.450771,4.641543 3.716168,6.588568 2.212011,1.318934 2.967542,2.180106 1.936351,2.2071 C 68.425445,39.980083 67.386388,39.55 67.046469,39 c -0.339919,-0.55 -1.24182,-1 -2.004226,-1 -0.934468,0 -1.508245,1.5479 -1.760735,4.75 L 62.906965,47.5 62.726717,42.643011 z M 56.796469,33.01096 c -4.560793,-2.780769 -4.055142,-3.46236 0.75,-1.01096 3.77377,1.925234 4.944659,3.004708 3.25,2.996262 -0.4125,-0.0021 -2.2125,-0.895442 -4,-1.985302 z m -35.5,-8.586359 c -0.4125,-0.416864 -0.75,-3.300071 -0.75,-6.407127 0,-5.521787 0.08764,-5.69845 3.886155,-7.833333 4.935557,-2.7739385 6.667279,-2.8250874 2.365049,-0.06986 -3.732789,2.390551 -3.526527,3.162371 1.563594,5.850872 2.026861,1.070547 3.010202,1.964656 2.185202,1.986908 -0.825,0.02225 -2.940637,-0.83795 -4.701416,-1.91156 l -3.201417,-1.952018 -0.298583,5.547023 c -0.164221,3.050868 -0.636084,5.205959 -1.048584,4.789095 z M 62.739149,19.75 C 62.633175,16.5875 62.347191,14 62.103629,14 c -0.243562,0 -2.062776,0.955786 -4.042698,2.123968 -1.979922,1.168183 -3.849252,1.874576 -4.154066,1.569762 -0.304814,-0.304814 1.377521,-1.539702 3.738523,-2.744195 4.553497,-2.32302 4.567651,-2.218624 -0.762297,-5.6224399 -1.733005,-1.1067328 -1.723787,-1.14602 0.163378,-0.6963679 1.1,0.2620954 3.036375,1.2598474 4.303056,2.2172268 2.066088,1.561585 2.265976,2.404932 1.94268,8.196368 L 62.931828,25.5 62.739149,19.75 z M 41.735553,7.7148162 C 41.554737,2.1826044 41.455269,1.9784413 39.460823,3.0458365 36.405456,4.6810191 36.056374,3.5511425 39.017502,1.6109371 41.349284,0.08309477 41.796975,0.07818157 44.64164,1.5492151 46.341519,2.4282568 47.504052,3.3757505 47.225046,3.6547567 46.94604,3.9337628 45.80179,3.6718267 44.682268,3.0726775 42.759724,2.043763 42.626739,2.3028439 42.285706,7.7416572 L 41.924638,13.5 41.735553,7.7148162 z"
     id="path3085"
     style="fill:#000000" />
  <path
     d="m 56.191844,118.33773 c -0.486494,-0.71714 -2.971716,-4.77342 -5.522711,-9.01394 -5.285552,-8.78617 -6.269564,-10.317842 -6.628623,-10.317842 -0.338731,0 -1.487046,1.909732 -5.249614,8.730482 -4.048729,7.3395 -6.089129,10.80749 -6.665498,11.3291 -0.255027,0.2308 -0.463688,0.33542 -0.463688,0.2325 0,-0.67523 3.81921,-7.9937 8.298229,-15.90128 1.42259,-2.51155 2.586529,-4.664597 2.586529,-4.784556 0,-0.129701 -2.274896,-0.279137 -5.612453,-0.368676 -3.08685,-0.08281 -7.780902,-0.215829 -10.431227,-0.295594 l -4.818773,-0.145028 0,-4.809902 c 0,-5.092534 -0.200535,-6.897778 -0.868655,-7.81976 -0.22595,-0.311803 -1.270938,-1.153247 -2.322197,-1.869877 -2.474105,-1.686566 -3.385356,-2.406636 -3.385356,-2.675106 0,-0.465106 0.952221,-0.164373 3.589897,1.133763 1.509644,0.742976 2.787634,1.27871 2.839977,1.190521 0.05234,-0.08819 0.16945,-1.619738 0.260237,-3.403446 0.09079,-1.783708 0.205667,-3.202505 0.25529,-3.152882 0.04962,0.04962 0.185208,1.341581 0.301301,2.871016 0.304258,4.008349 0.769728,4.351997 3.41129,2.518482 1.860031,-1.291053 4.302487,-2.05526 3.759194,-1.176198 -0.07768,0.125689 -1.100742,0.8975 -2.273471,1.715134 -2.734543,1.90654 -2.945668,2.115498 -2.581177,2.554682 0.154437,0.186086 1.765162,1.339612 3.579388,2.56339 3.142586,2.119816 4.701261,3.399666 4.14031,3.399666 -0.579967,0 -2.783793,-0.969517 -4.695444,-2.065637 -3.492744,-2.002705 -4.661276,-2.152853 -4.993204,-0.641595 -0.186179,0.847669 0.08771,6.829141 0.330712,7.222318 0.334078,0.540549 17.780716,0.695634 18.313559,0.162791 C 41.616894,95.249031 40.056859,92.413732 35.27823,84.492937 26.640799,70.176001 22.034484,62.950186 21.54515,62.950186 c -0.488428,0 -1.176893,1.09739 -3.189529,5.083996 -3.603913,7.138587 -9.7933803,17.797893 -9.9907562,17.205764 -0.1239737,-0.37192 2.6527202,-5.817626 7.0871332,-13.899426 5.029854,-9.167002 5.297716,-9.714231 4.881051,-9.971744 -0.368142,-0.227524 -2.126097,-0.364526 -8.439366,-0.657703 -7.9464925,-0.369018 -6.1974977,-0.967478 4.655548,-1.593002 2.025716,-0.116753 3.704528,-0.316069 3.844946,-0.456487 0.347432,-0.34743 -0.389171,-1.779227 -3.642109,-7.079462 -4.294442,-6.997233 -7.2721079,-12.2624 -7.6458191,-13.519483 -0.6880004,-2.314285 2.9819841,3.047043 6.7912131,9.921004 2.10158,3.792415 4.374993,7.552739 5.068346,8.383264 1.114947,1.335526 1.118789,1.330641 6.326889,-8.043115 1.870982,-3.367472 5.609281,-9.988489 8.307332,-14.71337 2.69805,-4.724883 4.905547,-8.61712 4.905547,-8.649417 0,-0.0323 -3.444005,-0.111143 -7.653346,-0.175213 -4.20934,-0.06407 -8.010501,-0.208139 -8.447026,-0.320152 -0.774922,-0.198847 -0.780281,-0.207927 -0.226765,-0.384193 0.311803,-0.09929 3.832342,-0.224455 7.82342,-0.278137 3.991078,-0.05368 7.58789,-0.150052 7.992916,-0.214156 l 0.736411,-0.116551 -0.468149,-0.917648 c -0.257482,-0.504706 -1.566932,-2.719601 -2.909889,-4.921989 -4.52534,-7.42135 -8.146962,-13.9831425 -7.870333,-14.2597716 0.152393,-0.1523939 2.982886,4.2120926 7.60685,11.7294076 2.033,3.305112 3.950775,6.243786 4.26172,6.530388 0.505482,0.465911 0.616708,0.487545 1.050293,0.204288 0.835771,-0.546003 1.963459,-2.216295 5.570935,-8.251473 4.47513,-7.4867307 5.509305,-9.0938158 5.627284,-8.7446737 0.153367,0.4538643 -4.719184,9.6295217 -7.557441,14.2316647 -0.539041,0.874034 -1.342064,1.940009 -1.784498,2.368833 -1.781624,1.726817 -1.249402,1.858963 8.266206,2.052432 7.193129,0.146248 9.567782,0.352858 8.548968,0.743814 -0.74215,0.284789 -5.170412,0.596165 -10.363095,0.728688 -2.930948,0.0748 -5.555433,0.192282 -5.832187,0.261069 l -0.503191,0.125068 0.476761,0.940935 c 0.262219,0.517516 1.979341,3.390008 3.815827,6.383317 1.836485,2.993308 5.560941,9.218029 8.276568,13.832713 4.905278,8.335571 6.042032,10.169753 6.464726,10.430991 0.348276,0.215246 1.417184,-1.463514 5.744052,-9.021249 4.518005,-7.89159 6.571712,-11.110662 6.692964,-10.490852 0.104598,0.53467 -1.057931,2.717536 -5.516546,10.358355 -4.093676,7.015413 -5.969671,10.52014 -5.749191,10.740617 0.260332,0.260332 2.905952,0.536181 6.722649,0.700947 3.893721,0.168092 4.481668,0.498866 0.950319,0.534641 -2.825608,0.02863 -7.316587,0.435257 -7.566424,0.685094 -0.137314,0.137313 0.05711,0.73748 0.53212,1.64263 0.75759,1.443607 12.562564,21.180955 13.523148,22.610053 0.591814,0.880464 0.487742,1.380049 -0.16452,0.78976 -0.812305,-0.735127 -5.115773,-7.44334 -10.277793,-16.020949 l -5.151668,-8.560409 -15.913045,0.01565 c -15.080485,0.01483 -22.416282,0.17594 -22.739758,0.499415 -0.162065,0.162065 0.420425,1.242715 3.335826,6.188704 l 2.013354,3.415664 10.26293,0.277432 c 5.644611,0.152589 11.137795,0.372538 12.207075,0.488776 2.157545,0.234544 3.64427,0.652308 3.77839,1.061717 0.194109,0.592537 -1.851871,0.780877 -10.711382,0.986021 -9.638887,0.223192 -12.745599,0.381239 -12.916077,0.657077 -0.151717,0.245485 1.956656,3.97393 7.524405,13.306156 l 4.885347,8.188436 7.396284,0.137663 c 6.501192,0.121002 9.351554,0.33169 9.739793,0.719929 0.549657,0.549658 -2.724795,0.975306 -9.88347,1.28476 -3.523373,0.152307 -6.406133,0.363551 -6.406133,0.46943 0,0.105877 1.313141,2.407596 2.918092,5.114936 5.020924,8.46963 8.126606,13.98502 8.6499,15.36138 0.376331,0.98983 -0.174059,0.61631 -1.097338,-0.74471 l 0,0 z M 54.878326,58.87825 c 6.388913,-0.225396 6.514768,-0.260432 6.045304,-1.68292 -0.471705,-1.429282 -2.505964,-4.28198 -4.360321,-6.114599 L 54.763841,49.302354 53.58731,49.44326 c -0.64709,0.0775 -6.451821,0.198234 -12.899396,0.268302 l -11.722868,0.127395 -1.305121,2.303757 c -1.952203,3.445962 -3.340541,6.261924 -3.170912,6.431552 0.456837,0.456838 20.401518,0.656344 30.389313,0.303984 l 0,0 z M 52.019331,46.667633 c 1.741801,-0.278802 1.797774,-0.420249 0.884178,-2.234408 -1.142152,-2.268009 -9.797843,-16.543918 -10.475859,-17.277928 -0.230873,-0.249939 -0.583736,0.22812 -1.924865,2.607807 -2.915045,5.172428 -5.704351,9.890175 -7.175612,12.13661 -2.678548,4.089819 -2.576465,4.569399 1.055727,4.959715 2.084662,0.224017 15.982911,0.07287 17.636431,-0.191796 z"
     id="path3125"
     style="fill:#f2f2f2" />
  <path
     d="m 21.142718,23.695812 c -0.327117,-1.57377 -0.394839,-2.611651 -0.390941,-5.991366 0.0049,-4.210724 0.1652,-4.844677 1.504588,-5.948714 1.003699,-0.827333 6.133525,-3.5262642 6.481723,-3.4101982 0.131334,0.043778 -0.684702,0.7184969 -1.813413,1.4993753 -2.162347,1.4959809 -2.746236,2.1088679 -2.746236,2.8826249 0,0.684338 1.188125,1.71067 3.51487,3.036231 2.365582,1.347688 2.968572,1.77485 2.77652,1.966901 -0.337273,0.337274 -3.163704,-0.932409 -6.064625,-2.724337 l -1.700743,-1.050566 -0.143747,0.743494 c -0.07906,0.408922 -0.210795,2.103687 -0.292742,3.766146 -0.156809,3.181191 -0.449183,5.210232 -0.801541,5.56259 -0.129946,0.129946 -0.254149,0.0025 -0.323713,-0.332181 l 0,0 z"
     id="path3127"
     style="fill:#f2f2f2" />
  <path
     d="M 41.888597,8.5263941 C 41.835028,5.5140179 41.534932,2.8888353 41.206611,2.5605143 40.936193,2.2900962 40.833935,2.3194774 38.526445,3.3305905 c -0.651998,0.2856972 -1.259032,0.445868 -1.348966,0.3559347 -0.455152,-0.4551527 3.368327,-3.09693412 4.482227,-3.09693412 0.739115,0 4.485312,1.83516892 5.073943,2.48559832 0.40896,0.4518961 0.407216,0.4623571 -0.07708,0.4623571 -0.272531,0 -1.126053,-0.2653915 -1.896716,-0.5897589 L 43.358646,2.3580285 42.96814,2.8402827 c -0.42702,0.5273475 -0.581631,1.513505 -0.855922,5.4593456 l -0.181279,2.6078067 -0.04234,-2.3810409 z"
     id="path3129"
     style="fill:#f2f2f2" />
  <path
     d="m 62.873893,19.708524 c -0.07109,-0.7248 -0.191434,-2.191393 -0.267427,-3.259096 -0.195837,-2.751513 -0.217032,-2.768207 -2.198031,-1.731418 -4.189836,2.192822 -5.095143,2.629476 -5.729996,2.763731 l -0.680298,0.143866 0.737691,-0.654997 c 0.40573,-0.360249 1.91946,-1.307806 3.363845,-2.105684 1.444384,-0.797878 2.726878,-1.638894 2.849987,-1.868924 0.353188,-0.659937 -0.214444,-1.280885 -2.622329,-2.868635 -1.201397,-0.7921963 -2.147129,-1.4775851 -2.101628,-1.5230862 0.295629,-0.2956294 3.8844,1.4800922 5.398871,2.6713582 1.424871,1.120789 1.602618,1.789561 1.576035,5.929828 -0.01288,2.005755 -0.06258,3.685988 -0.110439,3.733851 -0.04786,0.04786 -0.145189,-0.505995 -0.216281,-1.230794 z"
     id="path3131"
     style="fill:#f2f2f2" />
  <path
     d="m 62.984045,43.788476 c -0.02416,-0.124721 -0.139202,-1.283762 -0.255649,-2.575645 -0.295425,-3.277516 -0.455978,-3.401986 -3.103017,-2.405643 -0.83943,0.315961 -1.66748,0.545561 -1.840109,0.510223 -0.172629,-0.03534 0.578367,-0.778563 1.66888,-1.651612 1.378974,-1.103985 2.10609,-1.863852 2.387784,-2.495334 0.466569,-1.045921 0.885119,-4.028174 0.890163,-6.342583 0.004,-1.822737 0.336113,-2.722558 0.540478,-1.464238 0.06949,0.427896 0.217321,2.174703 0.328502,3.881796 0.264829,4.066211 0.432614,4.39199 3.214345,6.2411 1.165062,0.774456 2.326517,1.616324 2.581011,1.870818 l 0.462716,0.462716 -0.632215,0 c -0.758985,0 -1.37205,-0.302188 -2.367724,-1.167084 -0.541757,-0.470599 -0.983031,-0.647042 -1.618214,-0.647042 -0.762413,0 -0.917736,0.09361 -1.222924,0.736989 -0.327079,0.689533 -0.726817,2.656397 -0.910218,4.478624 -0.04394,0.436525 -0.09965,0.691636 -0.123809,0.566915 z"
     id="path3133"
     style="fill:#f2f2f2" />
  <path
     d="m 58.752786,33.920247 c -2.744141,-1.445233 -5.153349,-3.170805 -4.427012,-3.170805 0.392087,0 4.327259,1.946823 5.738352,2.838899 2.357015,1.490075 1.364651,1.741246 -1.31134,0.331906 z"
     id="path3135"
     style="fill:#f2f2f2" />
  <path
     d="m 83.719268,54.185041 c -0.190321,-3.223638 -0.301235,-3.864603 -0.694883,-4.015659 -0.496827,-0.190651 -1.492792,0.228043 -4.031724,1.694894 -3.385728,1.956082 -5.039078,2.405887 -3.067357,0.834495 0.536901,-0.427891 1.996629,-1.409227 3.243841,-2.180747 2.960038,-1.831067 3.577239,-2.334757 3.406411,-2.779928 -0.07522,-0.19601 -1.097878,-0.901871 -2.272582,-1.568579 -3.074653,-1.745034 -3.08176,-2.503539 -0.0093,-0.99288 1.850647,0.909922 3.301137,2.083589 3.698062,2.992294 0.287262,0.657644 0.361563,1.598125 0.349571,4.424723 -0.01835,4.324493 -0.402632,5.307628 -0.622036,1.591387 z"
     id="path3137"
     style="fill:#f2f2f2" />
  <path
     d="m 77.831958,76.151749 c 0.262316,-0.214112 1.357312,-1.026916 2.433323,-1.80623 1.992054,-1.442768 2.51816,-2.210416 2.037329,-2.972693 -0.121783,-0.193066 -0.932865,-0.713006 -1.802404,-1.155422 -2.130233,-1.083849 -5.86331,-3.865731 -5.18752,-3.865731 0.09211,0 2.151483,1.08249 4.576383,2.405534 2.424899,1.323044 4.468075,2.346368 4.54039,2.274053 0.07232,-0.07232 0.257397,-1.588495 0.411295,-3.369289 l 0.279812,-3.237807 0.02894,3.480599 c 0.03514,4.226382 -0.08058,4.553342 -2.07303,5.85752 -2.584615,1.691785 -6.670375,3.553307 -5.244514,2.389466 z"
     id="path3139"
     style="fill:#f2f2f2" />
  <path
     d="m 48.810153,85.444699 c -0.357764,-0.578875 0.984274,-3.613326 2.034349,-4.59982 l 0.545833,-0.512784 0,0.733869 c 0,1.332856 -2.178125,5.029276 -2.580182,4.378735 z"
     id="path3141"
     style="fill:#f2f2f2" />
  <path
     d="m 57.286245,112.68797 c 0,-0.18962 0.463752,-0.54577 2.748208,-2.11056 2.79788,-1.91647 2.800422,-2.0222 0.09298,-3.86813 -1.955933,-1.33356 -3.278698,-2.46616 -2.894643,-2.4785 0.157682,-0.005 1.610361,0.65407 3.228175,1.46476 1.617813,0.81069 2.993958,1.47398 3.0581,1.47398 0.06414,0 0.110886,-3.69912 0.103876,-8.220263 -0.01207,-7.784865 -0.198566,-12.702328 -0.492906,-12.996667 -0.170565,-0.170565 -1.043187,0.279474 -4.279205,2.206922 -3.027179,1.803059 -4.858794,2.586374 -5.107337,2.184224 -0.245724,-0.39759 0.871683,-1.210826 4.842625,-3.524408 1.978188,-1.152549 3.789406,-2.236449 4.024929,-2.408667 0.391414,-0.286208 0.155789,-0.451359 -2.74115,-1.92129 -1.743156,-0.884491 -3.420254,-1.881386 -3.726885,-2.215321 l -0.557512,-0.607154 0.680297,0.150286 c 0.374164,0.08266 2.141042,0.862382 3.926396,1.732722 1.785354,0.870341 3.280058,1.582438 3.321564,1.582438 0.04151,0 0.148569,-1.36488 0.237916,-3.033067 0.223465,-4.17227 0.556528,-4.432678 0.560838,-0.438494 0.0019,1.769916 0.0855,3.268728 0.185767,3.330693 0.100262,0.06197 1.391513,-0.493257 2.869446,-1.233828 1.477933,-0.740572 2.893335,-1.346494 3.145338,-1.346494 0.436206,0 0.431814,0.02822 -0.09157,0.588259 -0.302364,0.323543 -1.748776,1.306097 -3.21425,2.183455 l -2.664498,1.595196 0,12.051833 0,12.051835 -2.32435,1.38606 c -3.155586,1.88174 -4.932156,2.7535 -4.932156,2.42018 z"
     id="path3143"
     style="fill:#f2f2f2" />
  <path
     d="m 44.438332,117.26059 c 8.24e-4,-0.99776 0.04069,-1.37773 0.08859,-0.84437 0.0479,0.53336 0.04723,1.34972 -0.0015,1.81412 -0.04873,0.46441 -0.08792,0.028 -0.0871,-0.96975 z"
     id="path3145"
     style="fill:#f2f2f2" />
  <path
     d="m 42.294648,120.46296 c -0.729346,-0.26065 -2.126021,-1.25527 -4.170113,-2.96969 -0.374163,-0.31381 -0.612142,-0.57108 -0.528842,-0.5717 0.0833,-6.1e-4 1.186055,0.46678 2.450564,1.03866 1.26451,0.57188 2.45772,0.97892 2.651578,0.90453 0.304828,-0.11698 0.331413,-0.52572 0.196687,-3.02399 -0.1256,-2.32904 -0.0932,-2.97232 0.167212,-3.32021 0.784769,-1.04836 1.29584,0.57293 1.297596,4.11643 6.96e-4,1.40311 0.04671,2.55111 0.102242,2.55111 0.05554,0 1.34504,-0.61226 2.86556,-1.36059 3.125772,-1.53836 4.243464,-1.78991 2.929374,-0.6593 -1.108145,0.95341 -4.593043,2.92047 -5.837556,3.29501 -1.223418,0.3682 -1.093253,0.36821 -2.124302,-2.7e-4 l 0,10e-6 z"
     id="path3147"
     style="fill:#f2f2f2" />
  <path
     d="m 28.636804,112.94989 c -1.621989,-0.67358 -4.947633,-2.85818 -5.585479,-3.66907 -0.871283,-1.10765 -1.23908,-2.90115 -1.246783,-6.0797 -0.0069,-2.83793 0.214446,-3.968406 0.776928,-3.968406 0.398693,0 0.7236,1.626826 0.897594,4.494296 0.09749,1.60673 0.24911,3.03757 0.336924,3.17966 0.201505,0.32604 1.397894,-0.27051 4.864297,-2.42547 2.42664,-1.50857 4.008532,-2.25608 4.254288,-2.01032 0.174125,0.17413 -1.41478,1.34346 -4.220818,3.10625 -2.971717,1.86688 -3.628253,2.40813 -3.628253,2.99113 0,0.26596 0.664916,0.85099 1.870818,1.64603 4.210128,2.77571 5.043395,4.13215 1.680484,2.7356 l 0,0 z"
     id="path3149"
     style="fill:#f2f2f2" />
  <path
     d="m 0.85893035,54.10632 c 0.0726372,-4.875581 0.0994015,-5.139846 0.60250305,-5.948996 0.7276504,-1.170298 4.9902828,-3.950764 6.8936343,-4.496638 1.7820913,-0.511097 -0.3540733,1.2897 -3.648549,3.075745 -1.380338,0.748327 -2.5128208,1.411617 -2.5166285,1.473978 -0.00381,0.06236 0.4776064,0.412613 1.0698089,0.778339 2.9902731,1.846698 7.4658149,4.85699 7.7645449,5.222505 0.31449,0.384799 0.298486,0.402504 -0.226766,0.250868 C 9.7179721,54.150477 6.5761544,52.57932 4.485337,51.305552 3.3288428,50.600993 2.2927461,50.024535 2.1828999,50.024535 c -0.2282612,0 -0.3151905,0.579068 -0.8170065,5.442379 -0.1994731,1.933179 -0.41224559,3.565893 -0.47282768,3.628253 -0.0605821,0.06236 -0.075943,-2.182621 -0.0341354,-4.988847 z"
     id="path3151"
     style="fill:#f2f2f2" />
  <path
     d="m 21.025406,45.319145 c -0.122407,-0.467704 -0.293266,-1.946359 -0.379688,-3.285899 -0.10545,-1.634495 -0.260268,-2.521124 -0.470722,-2.695785 -0.305956,-0.253921 -1.667618,-0.194086 -3.479829,0.152912 -0.772309,0.147881 -0.746119,0.107858 0.972646,-1.486368 2.408998,-2.234445 2.631749,-2.738272 3.002038,-6.790125 0.281298,-3.078072 0.613401,-4.546222 1.02838,-4.546222 0.433903,0 0.666081,1.711255 0.666081,4.909303 0,1.914567 0.06236,3.481032 0.138582,3.481032 0.07622,0 0.983686,-0.510467 2.016591,-1.134372 2.393534,-1.445762 4.752239,-2.551211 5.238682,-2.455201 0.642575,0.126826 -0.759793,1.284132 -3.767647,3.109254 -1.509153,0.915732 -2.71283,1.689703 -2.674838,1.719936 0.03799,0.03023 1.30556,0.833868 2.816818,1.785856 1.511257,0.951989 2.888859,1.901248 3.061338,2.109467 0.286714,0.346125 0.238203,0.36446 -0.565897,0.213887 -1.322977,-0.247737 -3.179466,-1.136308 -3.672223,-1.757636 -0.620027,-0.781805 -0.932187,-0.924416 -1.43473,-0.655463 -0.567274,0.303596 -0.853335,1.229099 -1.160269,3.753863 -0.343649,2.826775 -0.672211,4.421933 -0.910807,4.421933 -0.111071,0 -0.302099,-0.382668 -0.424506,-0.850372 z"
     id="path3153"
     style="fill:#f2f2f2" />
  <path
     d="M 7.5063736,76.717101 C 5.526656,75.845802 2.9982826,74.354788 2.366657,73.686145 1.4530936,72.719041 1.2568018,71.955816 1.1525067,68.965265 l -0.095103,-2.726975 0.324536,2.245245 c 0.1784948,1.234885 0.419839,2.340549 0.5363204,2.45703 0.2424268,0.242427 0.7089991,0.02347 4.0725927,-1.911185 2.8727281,-1.652325 5.9495212,-3.199539 6.0877422,-3.061318 0.213758,0.213759 -1.96401,1.851698 -5.24774,3.94692 -1.8708178,1.193698 -3.4813035,2.240761 -3.5788571,2.326806 -0.2341644,0.206541 2.6464377,2.489589 4.6222027,3.663369 2.2301934,1.324934 1.9920716,1.850566 -0.367827,0.811944 l 0,0 z"
     id="path3155"
     style="fill:#f2f2f2" />
  <path
     d="m 56.091518,117.90563 c -0.30094,-0.47949 -2.82051,-4.59643 -5.599042,-9.14875 -5.461734,-8.948462 -5.993985,-9.750932 -6.467461,-9.750932 -0.405187,0 -1.479587,1.761342 -6.339133,10.392222 -4.586944,8.14671 -5.160065,9.09415 -5.281255,8.73058 -0.116179,-0.34854 0.443821,-1.43601 5.694737,-11.05866 2.445908,-4.48229 4.447104,-8.221508 4.447104,-8.309382 0,-0.365175 -1.093444,-0.451804 -8.473428,-0.671322 -4.257179,-0.126629 -8.778524,-0.28763 -10.047432,-0.35778 l -2.307105,-0.127545 -0.08691,-5.591808 c -0.05753,-3.70119 -0.180841,-5.821818 -0.364719,-6.272104 -0.266986,-0.6538 -1.415027,-1.634229 -4.565994,-3.899365 -0.807547,-0.580523 -1.345549,-1.096402 -1.195559,-1.146399 0.149989,-0.04999 1.559005,0.486626 3.131146,1.192496 1.572141,0.705867 2.89637,1.245466 2.942731,1.199103 0.04636,-0.04636 0.155083,-1.179245 0.241605,-2.51752 0.08652,-1.338274 0.18485,-2.40569 0.218507,-2.372031 0.03366,0.03366 0.179347,0.924125 0.323754,1.978817 0.144408,1.054692 0.360422,2.10048 0.480032,2.323973 0.343187,0.641251 1.167881,0.482635 2.960661,-0.569427 3.819431,-2.241369 4.390781,-1.9977 1.099298,0.468825 -1.373816,1.029492 -2.497848,2.004752 -2.497848,2.167248 0,0.162498 1.689068,1.506492 3.753484,2.986655 2.064415,1.480162 3.811952,2.785812 3.883415,2.901442 0.232253,0.375794 -0.874618,-0.08499 -4.037853,-1.680922 -3.584441,-1.808446 -4.322227,-2.022386 -4.965794,-1.439965 -0.40073,0.362655 -0.445306,0.690858 -0.427512,3.147606 0.01093,1.508503 0.08746,3.252958 0.170074,3.876564 l 0.150209,1.133829 1.133829,0.154992 c 1.446801,0.197774 16.473335,0.245347 16.972672,0.05374 0.765917,-0.293909 0.575493,-0.718544 -3.177255,-7.085042 -3.72696,-6.322747 -12.059242,-19.8442 -14.170076,-22.994898 -1.475124,-2.201819 -1.896575,-2.684619 -2.293146,-2.626952 -0.372481,0.05416 -0.984545,0.996751 -2.622736,4.039052 -5.780056,10.7342 -9.0525637,16.459254 -9.2789161,16.232901 -0.1482102,-0.14821 0.8586731,-2.107199 6.3299951,-12.315615 2.488362,-4.642796 4.54385,-8.719201 4.567751,-9.058676 0.03897,-0.55345 -0.05027,-0.633332 -0.863608,-0.773079 -0.498885,-0.08572 -3.101023,-0.279913 -5.782528,-0.43154 -2.681506,-0.151629 -5.2836432,-0.346938 -5.782528,-0.434018 l -0.9070632,-0.158328 1.133003,-0.162394 c 0.6231516,-0.08932 3.1742672,-0.312125 5.6691452,-0.495127 6.385025,-0.468351 6.690417,-0.516453 6.690417,-1.053765 0,-0.615046 -0.187811,-0.95575 -5.10717,-9.264857 C 11.0408,41.681853 9.3015237,38.521028 9.5019337,38.32062 c 0.2689592,-0.268961 2.5921993,3.355036 6.6178353,10.323088 3.556883,6.156678 5.041243,8.410567 5.539006,8.410567 0.516252,0 1.113715,-0.668267 2.230132,-2.494424 1.259351,-2.059956 16.488438,-29.058916 16.56969,-29.375657 0.07083,-0.276114 -4.335882,-0.52984 -10.157482,-0.584839 -1.683736,-0.01591 -3.77565,-0.09642 -4.648699,-0.178921 l -1.58736,-0.149999 2.381041,-0.157851 c 1.309572,-0.08682 5.0342,-0.221001 8.276951,-0.298185 3.242751,-0.07718 5.939711,-0.182369 5.993244,-0.233746 C 40.88637,23.417429 40.133544,22.030304 37.253941,17.201072 32.47975,9.1945277 30.623454,5.8608087 30.8264,5.6578635 c 0.05686,-0.056865 2.130388,3.121418 4.607827,7.0628515 4.877916,7.760425 5.91285,9.257571 6.474224,9.365682 0.813731,0.15671 2.12549,-1.733809 8.584589,-12.3721967 1.155708,-1.9034909 2.147999,-3.4141772 2.205096,-3.3570806 0.340775,0.340774 -6.749811,12.8830943 -8.25777,14.6069163 -1.102031,1.259789 -1.252581,1.945385 -0.476611,2.17048 0.280622,0.0814 3.061338,0.244129 6.179368,0.361612 13.335883,0.502478 13.724857,0.730191 2.175886,1.273809 -4.190047,0.197228 -7.703482,0.438063 -7.807638,0.535188 -0.26493,0.247052 -0.390282,0.02766 8.837259,15.467001 9.69382,16.219512 9.732824,16.282149 10.138753,16.282149 0.41926,0 1.116064,-1.09871 6.471689,-10.204461 4.220112,-7.175128 6.002988,-9.95642 5.596453,-8.730483 -0.08272,0.249442 -2.380539,4.382249 -5.106267,9.184015 -5.526631,9.735965 -6.028221,10.694023 -5.84662,11.167272 0.146007,0.380488 1.248452,0.537941 5.374168,0.767543 2.974634,0.165546 3.191619,0.491345 0.348473,0.523226 -1.73606,0.01946 -5.579936,0.416195 -5.758031,0.59429 -0.348808,0.348806 1.80802,4.153304 10.572516,18.649192 2.058548,3.404702 3.689829,6.243357 3.625067,6.308119 -0.282498,0.282498 -4.344082,-6.036624 -11.79296,-18.347803 l -3.676332,-6.07608 -19.048327,0.07553 c -10.47658,0.04154 -19.235127,0.162201 -19.463437,0.268133 -0.264272,0.122619 -0.374058,0.349591 -0.302134,0.624631 0.06214,0.237614 1.256746,2.407359 2.654685,4.821657 l 2.541709,4.389635 3.42957,0.133942 c 1.886263,0.07367 6.797042,0.242043 10.912841,0.374166 4.115799,0.13212 8.146561,0.341194 8.957249,0.464604 1.74719,0.265974 2.947956,0.623738 2.947956,0.87833 0,0.318935 -1.302845,0.429404 -8.050186,0.682585 -11.535561,0.432853 -15.315674,0.619556 -15.459684,0.763564 -0.291154,0.291156 0.682141,2.020392 10.250499,18.211842 l 2.030556,3.436083 3.970357,0.130798 c 8.342316,0.274825 12.726198,0.528344 12.946551,0.748697 0.376692,0.376692 -2.390864,0.71375 -8.989416,1.094807 -6.090192,0.3517 -6.903138,0.441894 -6.903138,0.765874 0,0.09405 1.94841,3.531177 4.3298,7.638067 4.91806,8.48156 6.889438,12.08363 6.710937,12.26213 -0.06778,0.0678 -0.369465,-0.26907 -0.670409,-0.74855 z M 57.05948,58.879248 c 1.808457,-0.111964 3.466682,-0.273169 3.684944,-0.358236 1.27402,-0.49654 -0.951587,-4.395812 -4.510748,-7.902854 -1.136151,-1.119515 -1.631784,-1.463886 -1.987904,-1.381221 -0.260917,0.06057 -6.072906,0.206089 -12.915528,0.323386 -6.842622,0.117295 -12.471152,0.244215 -12.507847,0.282047 -0.03669,0.03783 -0.89697,1.583031 -1.911724,3.433778 -2.019518,3.683273 -2.647005,5.07223 -2.402601,5.318205 0.0878,0.08837 1.044489,0.2196 2.12597,0.291632 3.258233,0.217015 26.895896,0.211781 30.425438,-0.0067 l 0,-2e-6 z M 50.330234,46.866849 c 3.585906,-0.241626 3.685502,-0.340076 2.588473,-2.55871 C 52.019471,42.489523 46.261541,32.827311 43.99418,29.332156 43.205321,28.116125 42.411418,27.12119 42.229951,27.12119 c -0.190304,0 -1.455807,1.943437 -2.990166,4.592007 -1.463122,2.525604 -3.7789,6.421565 -5.146171,8.657691 -2.70757,4.428136 -3.113959,5.539009 -2.204406,6.025787 0.279392,0.149525 0.980279,0.351671 1.55753,0.449212 1.390793,0.235013 13.484004,0.250027 16.883496,0.02095 l 0,9e-6 z"
     id="path3157"
     style="fill:#f2f2f2" />
  <path
     d="m 56.092203,117.90563 c -0.300566,-0.47949 -2.825937,-4.59643 -5.611932,-9.14875 -5.402421,-8.827564 -6.013831,-9.750932 -6.456605,-9.750932 -0.407505,0 -0.909233,0.82006 -5.876114,9.604342 -5.095879,9.01243 -5.621297,9.88334 -5.742751,9.51898 -0.11607,-0.3482 0.668594,-1.87292 5.81193,-11.29341 2.381357,-4.36168 4.329737,-7.998855 4.329737,-8.08262 0,-0.350795 -1.077446,-0.434569 -8.460047,-0.657777 -4.264539,-0.128935 -8.790634,-0.292161 -10.057988,-0.362723 l -2.304281,-0.128295 -0.07676,-5.592 c -0.09646,-7.026918 0.116018,-6.584142 -4.850987,-10.108972 -0.864537,-0.613519 -1.450065,-1.156095 -1.301173,-1.205725 0.148891,-0.04963 1.423699,0.413 2.832907,1.028063 1.409208,0.615066 2.726817,1.174595 2.92802,1.243398 0.304165,0.104011 0.389892,-0.129694 0.508611,-1.386555 0.07853,-0.831407 0.143512,-1.962347 0.144399,-2.5132 0.0023,-1.451414 0.154528,-1.080637 0.453892,1.105796 0.144408,1.054692 0.360422,2.10048 0.480032,2.323973 0.337065,0.629813 1.074998,0.486762 2.922706,-0.566574 3.902553,-2.224756 4.416196,-2.007063 1.132374,0.479925 -1.371133,1.038422 -2.492969,1.975502 -2.492969,2.082401 0,0.258795 1.325923,1.313167 4.833496,3.84359 1.598292,1.153036 2.847683,2.154731 2.776425,2.22599 -0.07126,0.07126 -1.705574,-0.64787 -3.631807,-1.598062 -4.070067,-2.007728 -4.822286,-2.221529 -5.434788,-1.544719 -0.385715,0.426208 -0.411981,0.77979 -0.305599,4.11381 0.07501,2.350702 0.211368,3.742584 0.383537,3.914892 0.332938,0.333209 17.646205,0.510173 18.133407,0.185347 0.195091,-0.130071 0.26327,-0.412163 0.1799,-0.744339 C 41.15126,94.140386 36.815879,86.771246 30.686204,76.7829 c -5.839575,-9.515633 -8.6783,-13.832714 -9.095787,-13.832714 -0.552741,0 -1.254494,1.091188 -3.864638,6.009294 -3.015546,5.681977 -7.255015,13.196588 -7.889019,13.983569 L 9.410233,83.472491 9.5677098,82.905576 C 9.6543221,82.593773 11.68919,78.665056 14.089638,74.175093 19.486299,64.080808 20.609779,61.845206 20.469549,61.479771 20.332901,61.123674 19.151225,60.987242 13.407063,60.664362 10.912639,60.52415 8.4635688,60.334381 7.964684,60.24265 L 7.0576208,60.075868 8.3048327,59.912046 c 0.6859666,-0.0901 3.6263313,-0.347957 6.5341443,-0.573008 3.140748,-0.243079 5.392744,-0.514996 5.54759,-0.669843 0.411883,-0.411882 0.09602,-1.024617 -4.774788,-9.262431 C 11.040662,41.675803 9.3018235,38.520729 9.5019337,38.32062 c 0.2638681,-0.26387 2.5470373,3.286176 6.5063433,10.116555 3.390052,5.848333 5.019001,8.363195 5.521914,8.52504 0.893091,0.287407 1.03795,0.05395 11.68728,-18.835322 5.336266,-9.465218 7.203458,-12.962554 6.98565,-13.084446 -0.163496,-0.0915 -3.79645,-0.268009 -8.07323,-0.392249 -4.276783,-0.12424 -7.822181,-0.272104 -7.878664,-0.328587 -0.153627,-0.153627 3.872127,-0.349219 10.358438,-0.503265 3.180391,-0.07553 5.867745,-0.218947 5.9719,-0.318698 0.244817,-0.234466 0.06318,-0.573909 -3.66839,-6.855344 -4.733151,-7.96743 -6.868192,-11.8928583 -5.95089,-10.9411441 0.114201,0.1184851 2.165053,3.3277881 4.557453,7.1317841 6.399857,10.176 6.107215,9.834484 7.379172,8.611585 0.733277,-0.704994 3.673858,-5.272367 8.139611,-12.6426137 C 51.890668,7.3975369 52.635372,6.2943564 52.693419,6.3524028 53.025545,6.684528 46.28746,18.675527 44.557257,20.8314 c -1.221882,1.522494 -1.318135,1.850535 -0.648182,2.209081 0.263198,0.14086 3.877647,0.381848 8.560409,0.570752 4.457675,0.179825 8.20691,0.335285 8.331631,0.345468 0.124721,0.01018 -0.01862,0.116643 -0.318538,0.236577 -0.299918,0.119934 -3.973524,0.37943 -8.163568,0.576659 -4.190047,0.197228 -7.704253,0.438833 -7.809347,0.536899 -0.254955,0.237902 -0.702031,-0.544767 8.419768,14.740004 9.294706,15.574497 10.187876,17.007435 10.600977,17.007435 0.353424,0 1.247545,-1.427518 6.888658,-10.998141 3.816393,-6.47483 5.535239,-9.131589 5.134884,-7.936803 -0.08358,0.249442 -2.452846,4.515936 -5.26503,9.481096 -5.001918,8.831335 -5.958677,10.677522 -5.678615,10.957584 0.263772,0.263774 2.102371,0.502579 5.137829,0.667324 3.564128,0.193441 3.318232,0.424193 -0.670066,0.628799 -3.568593,0.183073 -4.535316,0.343732 -4.535316,0.753715 0,0.639258 2.018916,4.146953 10.263595,17.832137 2.239695,3.717624 4.018752,6.812734 3.953464,6.878022 -0.06529,0.06529 -0.681796,-0.680399 -1.370019,-1.657084 C 76.181975,81.946858 67.733189,68.356137 64.7515,63.330964 L 63.295539,60.87717 44.247212,60.96225 c -10.47658,0.04679 -19.235127,0.170138 -19.463437,0.274099 -0.262929,0.119725 -0.374101,0.345845 -0.303247,0.616789 0.06152,0.235272 1.260852,2.405239 2.665172,4.82215 l 2.553309,4.394383 3.419082,0.133452 c 1.880496,0.0734 6.786556,0.241551 10.902355,0.373674 4.115799,0.13212 8.146561,0.341194 8.957249,0.464604 1.74719,0.265974 2.947956,0.623738 2.947956,0.87833 0,0.319157 -1.30453,0.429508 -8.050186,0.680978 -10.634763,0.39645 -15.328767,0.634257 -15.478691,0.784181 -0.211484,0.211481 1.283453,2.955218 5.507418,10.108049 2.099073,3.554554 4.486019,7.600731 5.304326,8.991506 l 1.487829,2.528679 4.197366,0.133005 c 7.777376,0.246445 12.498823,0.525963 12.726278,0.753418 0.359873,0.359873 -2.506009,0.716154 -8.755119,1.08842 -3.117721,0.185728 -5.872925,0.339248 -6.122676,0.341157 -0.249751,0.0018 -0.596195,0.09346 -0.769877,0.203436 -0.343332,0.21741 -0.371367,0.165218 6.10076,11.35815 3.556658,6.1509 4.858738,8.59358 4.677468,8.77485 -0.06152,0.0615 -0.357777,-0.28045 -0.658344,-0.75993 l 0,0 z m 3.747332,-59.211439 c 0.593621,-0.114444 1.141605,-0.270373 1.217739,-0.34651 0.674064,-0.674063 -1.889362,-4.806559 -4.605527,-7.424564 l -1.773308,-1.709222 -4.081785,0.152763 c -2.244981,0.08402 -6.540141,0.164369 -9.544801,0.178553 -3.004658,0.0142 -6.995369,0.09212 -8.868248,0.173181 l -3.405233,0.147391 -1.376961,2.517108 c -1.74549,3.190787 -2.996207,5.699261 -2.996207,6.009286 0,0.603805 1.511727,0.648494 19.388476,0.573162 8.231599,-0.03469 15.452232,-0.156704 16.045855,-0.271148 l 0,0 z M 50.102684,46.871497 c 3.250213,-0.205427 3.617397,-0.371533 3.306222,-1.495661 -0.31693,-1.144915 -9.269251,-16.176653 -10.564919,-17.739433 l -0.521155,-0.628596 -0.527353,0.588439 c -0.290045,0.323642 -1.580705,2.415557 -2.868136,4.648699 -1.287431,2.233144 -3.296846,5.622542 -4.465368,7.531996 -3.828172,6.255534 -3.875579,6.585617 -1.015237,7.068946 1.407435,0.237825 13.015958,0.255673 16.655946,0.02561 l 0,0 z"
     id="path3159"
     style="fill:#f2f2f2" />
  <path
     d="m 56.090258,117.90563 c -0.301637,-0.47949 -2.672268,-4.34132 -5.268069,-8.58184 -5.2359,-8.55341 -6.379598,-10.317842 -6.687977,-10.317842 -0.46479,0 -1.238449,1.238132 -5.732605,9.174262 -5.329042,9.41044 -5.874665,10.31549 -5.997216,9.94783 -0.116136,-0.34841 0.317535,-1.19269 5.662897,-11.02465 2.494744,-4.58869 4.472089,-8.406887 4.394102,-8.484874 -0.219652,-0.219652 -4.459329,-0.463774 -10.686297,-0.615317 -3.11803,-0.07588 -6.654934,-0.197795 -7.859787,-0.270915 l -2.190642,-0.132944 -0.07702,-5.476063 c -0.09659,-6.86814 0.04113,-6.519755 -3.684104,-9.319242 -1.485013,-1.115978 -2.586979,-2.066732 -2.448812,-2.112786 0.138166,-0.04606 1.419242,0.433327 2.846834,1.065294 1.427593,0.631969 2.749636,1.149033 2.937873,1.149033 0.271434,0 0.37348,-0.457475 0.493182,-2.210966 0.191825,-2.809994 0.247621,-2.972925 0.446521,-1.303904 0.08918,0.748327 0.28439,1.819796 0.433801,2.381041 0.359792,1.351511 0.861451,1.406966 2.814824,0.311166 3.972893,-2.228709 4.788674,-2.215747 1.824337,0.02898 -2.805486,2.124442 -3.005275,2.329418 -2.667334,2.736612 0.148452,0.178875 1.896466,1.509206 3.884475,2.956293 1.988008,1.447088 3.558846,2.686785 3.490748,2.754883 -0.06809,0.0681 -1.732747,-0.656333 -3.699226,-1.609845 -4.342269,-2.105493 -4.857279,-2.239722 -5.402232,-1.408018 -0.348036,0.53117 -0.379662,1.020959 -0.266364,4.12516 0.07071,1.937335 0.189886,3.58375 0.264837,3.658701 0.335218,0.335219 3.488915,0.486798 10.201874,0.490342 3.981837,0.002 7.476865,-0.0557 7.766729,-0.128453 0.292763,-0.07348 0.527028,-0.303492 0.527028,-0.51746 0,-0.605185 -3.753448,-7.020707 -11.264065,-19.252926 -5.221919,-8.504711 -8.171702,-12.966999 -8.571801,-12.966999 -0.521054,0 -1.275888,1.187169 -3.965057,6.236059 -2.975099,5.58572 -7.165855,13.000733 -7.774956,13.756804 L 9.410229,83.472488 9.5683147,82.905573 C 9.6552617,82.59377 11.812632,78.429121 14.362471,73.650796 20.158141,62.789873 20.727,61.612251 20.304042,61.350849 19.889472,61.094631 18.576971,60.96342 13.633825,60.684035 11.388848,60.557151 8.9907993,60.384764 8.3048327,60.300954 7.0815168,60.15149 7.0728273,60.145317 7.8513011,59.978808 c 0.4365242,-0.09337 3.0896839,-0.340085 5.8959109,-0.548261 6.517585,-0.483494 6.703102,-0.520802 6.644003,-1.33612 -0.02525,-0.348369 -2.166217,-4.235885 -4.799406,-8.71465 -4.843773,-8.238728 -6.2866012,-10.862431 -6.0845735,-11.064459 0.062338,-0.06234 0.5710435,0.531353 1.1304565,1.319312 0.946108,1.332641 1.839979,2.809227 7.405265,12.232743 2.237968,3.789478 3.253531,5.186902 3.769528,5.186902 0.678889,0 0.971601,-0.483812 10.358795,-17.12158 7.775291,-13.780853 8.217986,-14.607971 7.955244,-14.863385 -0.103324,-0.100443 -2.483866,-0.243475 -5.290093,-0.31785 -2.806227,-0.07438 -6.377788,-0.204161 -7.936803,-0.288413 -2.512359,-0.135773 -2.692798,-0.17129 -1.58736,-0.312456 0.685966,-0.0876 2.930948,-0.182185 4.988847,-0.210192 6.072577,-0.08264 10.274557,-0.313141 10.358809,-0.568224 0.04254,-0.12878 -1.005398,-2.067627 -2.328739,-4.30855 C 32.021347,8.3786661 30.616322,5.8679415 30.828187,5.656075 c 0.05722,-0.057218 0.896346,1.1519527 1.864729,2.6870465 0.968381,1.5350936 2.981698,4.7299265 4.47404,7.0996295 3.129642,4.969592 4.362139,6.689591 4.793556,6.689591 0.766024,0 1.925612,-1.656286 7.265239,-10.377236 1.852731,-3.0259738 3.414637,-5.4557343 3.470904,-5.3994675 0.32948,0.3294789 -6.420102,12.3334795 -8.139398,14.4757615 -0.607049,0.756398 -1.103725,1.514138 -1.103725,1.683867 0,0.169729 0.265687,0.409612 0.590421,0.533075 0.324731,0.123462 4.176915,0.374614 8.560409,0.558114 4.383491,0.1835 8.072032,0.341539 8.196753,0.351198 0.124721,0.0097 -0.01424,0.114069 -0.3088,0.232022 -0.451446,0.180775 -11.812219,0.871584 -14.657743,0.891286 -1.504232,0.01042 -1.641419,0.238482 -0.907074,1.507988 2.134535,3.690105 17.661239,29.545173 18.022935,30.011793 l 0.439441,0.566915 0.562197,-0.566915 c 0.309211,-0.311802 2.802969,-4.357842 5.541687,-8.9912 2.738716,-4.633358 5.212459,-8.739397 5.497202,-9.124534 0.937722,-1.268338 0.743633,-0.527868 -0.39262,1.497885 -0.614358,1.0953 -3.07191,5.460972 -5.461226,9.701493 -2.389315,4.24052 -4.408086,7.976829 -4.486157,8.302907 -0.19491,0.8141 0.02695,0.873164 4.397186,1.170649 3.629017,0.247029 4.367468,0.567497 1.390519,0.603444 -2.130315,0.02572 -5.512053,0.445928 -5.779757,0.718174 -0.321606,0.327062 0.607925,1.996365 7.921469,14.225831 3.45623,5.779398 6.235152,10.5569 6.175381,10.616671 -0.27203,0.27203 -5.714371,-8.218684 -12.351883,-19.270444 L 63.295539,60.8761 44.360595,60.976371 c -10.41422,0.05515 -19.164545,0.176564 -19.445167,0.26981 -0.280623,0.09325 -0.510224,0.276353 -0.510224,0.406902 0,0.130547 1.188362,2.302396 2.640804,4.826332 l 2.640803,4.588971 3.651948,0.135052 c 2.008571,0.07428 6.917375,0.242381 10.908453,0.373561 3.991078,0.131179 7.919795,0.33982 8.730483,0.463645 1.748503,0.267071 2.947956,0.624749 2.947956,0.879085 0,0.317585 -1.294992,0.428161 -7.936803,0.677698 -9.497802,0.356839 -15.467879,0.663263 -15.605599,0.800983 -0.193245,0.193247 1.272093,2.854999 5.796395,10.529026 2.322388,3.939185 4.739704,8.042827 5.371812,9.119203 l 1.149287,1.95705 4.421934,0.140128 c 7.492505,0.237435 12.269397,0.527811 12.501528,0.759942 0.358312,0.358312 -2.56727,0.716024 -8.873276,1.084933 -6.565366,0.384085 -7.118307,0.459369 -6.932384,0.943875 0.07114,0.185399 2.258759,4.027893 4.861366,8.538873 4.903144,8.4984 6.261528,11.00323 6.070636,11.19412 -0.06152,0.0615 -0.358652,-0.28045 -0.660289,-0.75993 l 0,0 z M 55.778087,58.882087 c 5.602222,-0.223108 5.704766,-0.263049 5.070343,-1.974806 -0.551751,-1.488697 -2.657931,-4.325685 -4.555281,-6.135883 l -1.61471,-1.540543 -4.081785,0.144282 c -2.244981,0.07936 -6.326766,0.156201 -9.070632,0.170768 -2.743866,0.01456 -6.738055,0.09284 -8.875974,0.173941 L 28.76292,49.8673 27.05337,53.063948 c -2.289938,4.2819 -2.766159,5.308489 -2.558809,5.516021 0.09619,0.09628 1.212418,0.234469 2.480501,0.307093 3.615889,0.207083 23.56481,0.203636 28.803025,-0.005 l 0,-9e-6 z M 52.524164,46.677932 C 54.19182,46.29048 53.975109,45.786945 47.572004,35.171375 43.948505,29.164052 42.622426,27.12119 42.3464,27.12119 c -0.355628,0 -0.911252,0.840779 -3.596576,5.442379 -1.492044,2.556784 -3.748273,6.369604 -5.013844,8.472934 -3.000753,4.987142 -3.003604,5.41385 -0.03898,5.835278 1.568555,0.222972 17.750209,0.05636 18.827163,-0.193849 z"
     id="path3161"
     style="fill:#f2f2f2" />
  <path
     d="m 56.218718,118.12402 c -0.24019,-0.35016 -2.825241,-4.54128 -5.744558,-9.31359 -2.919317,-4.77231 -5.540723,-8.956138 -5.825346,-9.297395 l -0.517493,-0.62047 -0.631604,0.728288 c -0.34738,0.400557 -2.741637,4.431317 -5.320567,8.957247 -5.47407,9.60679 -5.651197,9.89993 -5.771256,9.55152 -0.112668,-0.32697 0.595093,-1.73772 4.133394,-8.23891 4.595842,-8.44429 6.023578,-11.168718 5.911637,-11.280661 -0.195177,-0.195177 -5.168956,-0.470244 -11.017981,-0.609336 -3.18039,-0.07563 -6.665089,-0.19654 -7.743775,-0.268692 l -1.961248,-0.131182 -0.08222,-5.476814 c -0.103193,-6.873491 0.03434,-6.525569 -3.684153,-9.31999 -1.485013,-1.115978 -2.586257,-2.066973 -2.447208,-2.113321 0.13905,-0.04635 1.438386,0.433032 2.887415,1.065296 1.449028,0.632261 2.770349,1.149566 2.936268,1.149566 0.220103,0 0.34248,-0.597816 0.452602,-2.210966 0.200807,-2.941568 0.227553,-2.977254 0.55236,-0.736989 0.287228,1.981073 0.698171,2.947955 1.252937,2.947955 0.173848,0 1.013364,-0.374411 1.86559,-0.832026 4.279455,-2.297909 4.823582,-2.206177 1.57256,0.265112 -1.312584,0.997769 -2.439656,1.945238 -2.504605,2.105486 -0.07333,0.180923 1.345115,1.373521 3.742259,3.14641 2.12319,1.570278 3.806822,2.908575 3.741405,2.973995 -0.06542,0.06542 -1.727881,-0.658111 -3.69436,-1.607843 -4.338839,-2.09549 -4.617407,-2.174568 -5.290243,-1.501733 -0.494852,0.494852 -0.503705,0.593339 -0.371899,4.137267 0.08783,2.361611 0.226391,3.686817 0.396466,3.79193 0.143796,0.08887 1.093153,0.226997 2.109683,0.306948 2.254316,0.177303 15.020237,0.165026 15.754965,-0.01515 C 41.648904,95.49716 41.484662,94.97698 39.714644,91.859208 35.622016,84.65031 23.626571,65.288144 22.332913,63.802889 l -0.841461,-0.966086 -0.455988,0.453532 c -0.250794,0.249442 -1.394263,2.18829 -2.541042,4.30855 -5.065334,9.36521 -8.7034683,15.760223 -8.9660207,15.760223 -0.2899761,0 0.4694812,-1.526417 4.8515027,-9.75093 C 20.357811,62.388385 20.637593,61.806579 20.244261,61.413247 20.029399,61.198384 18.473571,61.015035 14.972507,60.79199 12.240695,60.61795 9.3422862,60.404259 8.5315985,60.317117 7.1599411,60.169679 7.1127163,60.146732 7.8513011,59.986572 c 0.4365242,-0.09466 2.9366169,-0.335139 5.5557619,-0.534405 7.564332,-0.575491 7.509793,-0.555551 6.57349,-2.403257 -0.322079,-0.635593 -2.471914,-4.370281 -4.777409,-8.299304 -4.342885,-7.401144 -5.8918931,-10.238304 -5.6964984,-10.433699 0.2648605,-0.26486 2.0626154,2.561973 7.8483344,12.340906 3.232542,5.463593 4.034524,6.558999 4.633714,6.32907 0.206547,-0.07926 0.821421,-0.83612 1.366388,-1.681911 1.60952,-2.497984 16.923728,-29.6759 16.923728,-30.034311 0,-0.338106 -1.016709,-0.413939 -8.47509,-0.632124 -4.100053,-0.119941 -7.499998,-0.263431 -7.555434,-0.318866 -0.158149,-0.15815 3.618479,-0.349512 9.794465,-0.496287 6.224181,-0.147921 6.783994,-0.209884 6.584852,-0.728841 -0.07248,-0.18889 -2.013945,-3.539802 -4.314357,-7.446469 -4.211284,-7.1518017 -5.670533,-9.8055233 -5.49078,-9.985276 0.117188,-0.11719 -0.08261,-0.4202407 4.355452,6.606232 4.723858,7.478947 6.126463,9.547481 6.596018,9.727666 0.247463,0.09496 0.592435,-0.03894 0.945974,-0.367166 0.719066,-0.66759 3.079509,-4.263101 6.855044,-10.441849 1.659007,-2.7150021 3.058533,-4.8942091 3.110061,-4.8426824 0.32645,0.3264503 -6.115964,11.8588624 -8.0283,14.3712684 -0.68835,0.904345 -1.197789,1.78435 -1.132086,1.955568 0.187232,0.487917 1.211277,0.590454 9.387041,0.939918 4.214474,0.180143 7.764724,0.335842 7.889445,0.345998 0.124721,0.01016 -0.01683,0.115927 -0.314535,0.235047 -0.297717,0.11912 -3.818256,0.371212 -7.82342,0.560204 -4.005165,0.188993 -7.520996,0.39547 -7.81296,0.458837 -0.387869,0.08418 -0.491399,0.219539 -0.384397,0.502559 0.195982,0.518376 18.151548,30.421999 18.614318,31.000728 0.357228,0.446738 0.371746,0.442772 0.969337,-0.264894 0.33367,-0.395135 2.842707,-4.485559 5.575636,-9.08983 4.577816,-7.712432 6.335254,-10.451511 5.928579,-9.240071 -0.08374,0.249442 -2.280228,4.229182 -4.881089,8.843866 -5.073392,9.00167 -6.305198,11.351896 -6.072003,11.585091 0.270332,0.270332 2.061505,0.503755 5.154205,0.671687 3.567495,0.193714 3.326001,0.425204 -0.676719,0.648686 -1.559015,0.08705 -3.191729,0.236136 -3.628253,0.331314 -1.398401,0.3049 -1.641988,-0.182642 7.819894,15.651588 3.076931,5.149171 5.545585,9.410965 5.485896,9.470652 C 78.481367,85.596452 72.987815,77.024623 66.40275,66.04751 L 63.295539,60.867884 44.360595,60.97975 c -10.41422,0.06153 -19.164545,0.184789 -19.445167,0.273919 -0.280623,0.08913 -0.510224,0.242887 -0.510224,0.341682 0,0.179022 3.106718,5.75789 4.561292,8.19091 l 0.765433,1.280313 3.742771,0.13669 c 2.058526,0.07518 6.957177,0.243873 10.885895,0.374871 3.928717,0.131 7.806412,0.339312 8.6171,0.462915 1.738564,0.265073 2.947956,0.623937 2.947956,0.874747 0,0.342459 -1.746462,0.47345 -10.657993,0.799381 -9.863308,0.360741 -12.645504,0.530235 -12.799725,0.779768 -0.05639,0.09124 0.265976,0.872962 0.716371,1.737149 0.796213,1.527721 7.820583,13.567753 10.309939,17.671622 l 1.23798,2.040893 4.179428,0.166872 c 9.172043,0.366211 12.492387,0.57211 12.70834,0.788063 0.36044,0.36044 -2.511422,0.716601 -8.755679,1.085862 -5.614211,0.332003 -7.143122,0.481918 -7.143122,0.700411 0,0.118438 1.695636,3.102192 6.689788,11.771802 3.209609,5.57173 4.514655,8.03285 4.347939,8.19957 -0.05692,0.0569 -0.300011,-0.183 -0.540199,-0.53317 l 0,0 z M 51.903857,58.959589 c 0.07457,-0.07457 1.673269,-0.121005 3.552665,-0.10319 1.879396,0.01782 3.417084,-0.05657 3.417084,-0.165294 0,-0.108728 0.294415,-0.154475 0.654256,-0.101662 0.77479,0.113714 1.613402,-0.279203 1.613402,-0.755933 0,-1.134042 -2.754311,-5.102021 -5.157187,-7.429666 L 54.854028,49.309175 41.855572,49.55738 c -7.14915,0.136513 -13.017042,0.271958 -13.039758,0.300988 -0.02272,0.02903 -0.71332,1.280814 -1.534676,2.781738 -1.938474,3.542316 -2.968874,5.757298 -2.770715,5.956025 0.08714,0.08739 1.34916,0.217538 2.804489,0.289223 3.636797,0.179136 24.421295,0.241885 24.588945,0.07424 l 0,0 z m 0.703741,-12.352836 c 0.836965,-0.23527 0.871406,-0.281734 0.752404,-1.015058 C 53.181685,44.49286 44.518583,29.724763 42.857591,27.688104 l -0.554816,-0.680297 -0.467719,0.563316 c -0.257243,0.309825 -1.18527,1.789472 -2.062278,3.288104 -0.877008,1.498633 -3.065674,5.190018 -4.8637,8.20308 -1.825617,3.059295 -3.325924,5.82823 -3.397743,6.270798 -0.16072,0.990399 0.24619,1.250652 2.385884,1.525957 2.080345,0.267669 17.605344,0.05832 18.710379,-0.252309 z"
     id="path3163"
     style="fill:#f2f2f2" />
  <path
     d=""
     id="path3165"
     style="fill:#f2f2f2" />
  <path
     d=""
     id="path3167"
     style="fill:#f2f2f2" />
  <path
     d="m 42.776707,63.460409 c 0.0025,-0.779048 0.06431,-0.983004 0.223293,-0.736989 0.289734,0.448331 0.289734,1.814126 0,1.814126 -0.124721,0 -0.225203,-0.484711 -0.223293,-1.077137 z"
     id="path3169"
     style="fill:#f2f2f2" />
  <path
     d=""
     id="path3171"
     style="fill:#f2f2f2" />
  <path
     d=""
     id="path3173"
     style="fill:#f2f2f2" />
  <path
     d=""
     id="path3175"
     style="fill:#f2f2f2" />
  <path
     d=""
     id="path3177"
     style="fill:#f2f2f2" />
  <path
     d="m 47.719563,49.416097 c 0.163697,-0.06551 0.359282,-0.05745 0.434635,0.0179 0.07535,0.07535 -0.05858,0.128949 -0.29763,0.119102 -0.26417,-0.01088 -0.317903,-0.06461 -0.137005,-0.137004 z"
     id="path3179"
     style="fill:#f2f2f2" />
</svg>
