<?xml version="1.0" encoding="UTF-8" standalone="no"?>
<!-- Created with Inkscape (http://www.inkscape.org/) -->

<svg
   xmlns:dc="http://purl.org/dc/elements/1.1/"
   xmlns:cc="http://creativecommons.org/ns#"
   xmlns:rdf="http://www.w3.org/1999/02/22-rdf-syntax-ns#"
   xmlns:svg="http://www.w3.org/2000/svg"
   xmlns="http://www.w3.org/2000/svg"
   xmlns:sodipodi="http://sodipodi.sourceforge.net/DTD/sodipodi-0.dtd"
   xmlns:inkscape="http://www.inkscape.org/namespaces/inkscape"
   id="svg3071"
   version="1.1"
   inkscape:version="0.48.2 r9819"
   width="86.022209"
   height="121.51571"
   sodipodi:docname="logo_black2.svg">
  <metadata
     id="metadata3077">
    <rdf:RDF>
      <cc:Work
         rdf:about="">
        <dc:format>image/svg+xml</dc:format>
        <dc:type
           rdf:resource="http://purl.org/dc/dcmitype/StillImage" />
        <dc:title></dc:title>
      </cc:Work>
    </rdf:RDF>
  </metadata>
  <defs
     id="defs3075" />
  <sodipodi:namedview
     pagecolor="#ffffff"
     bordercolor="#666666"
     borderopacity="1"
     objecttolerance="10"
     gridtolerance="10"
     guidetolerance="10"
     inkscape:pageopacity="0"
     inkscape:pageshadow="2"
     inkscape:window-width="1276"
     inkscape:window-height="756"
     id="namedview3073"
     showgrid="false"
     inkscape:zoom="0.5"
     inkscape:cx="5.7787622"
     inkscape:cy="56.468269"
     inkscape:window-x="2"
     inkscape:window-y="22"
     inkscape:window-maximized="0"
     inkscape:current-layer="layer4"
     fit-margin-top="0"
     fit-margin-left="0"
     fit-margin-right="0"
     fit-margin-bottom="0" />
  <g
     inkscape:groupmode="layer"
     id="layer3"
     inkscape:label="Layer"
     transform="translate(-0.71194427,0.5515391)">
    <path
       inkscape:connector-curvature="0"
       id="path3085"
       d="m 40.360915,118.57602 -3,-2.54096 3.20034,1.54593 c 4.140141,1.9999 3.96266,2.09929 3.489453,-1.95407 -0.250103,-2.14231 0.02174,-3.5 0.700801,-3.5 0.610173,0 1.109406,1.58656 1.109406,3.52568 l 0,3.52568 3.09293,-1.59942 c 4.393324,-2.27187 4.709994,-1.12323 0.392608,1.42409 -4.575428,2.69957 -5.336942,2.66339 -8.985538,-0.42693 z m -7.5,0.79291 c 0,-0.66165 2.477765,-5.59928 5.506144,-10.9725 l 5.506144,-9.769499 -10.506144,-0.283832 -10.506144,-0.283831 0,-6.367393 c 0,-6.259165 -0.06163,-6.403756 -3.626032,-8.506803 -4.303146,-2.538919 -3.902414,-3.899892 0.480888,-1.633198 l 3.040716,1.572416 0.367232,-5.24868 0.367231,-5.248679 0.184983,5.25 c 0.197613,5.608481 0.592112,6.012998 3.626112,3.718197 1.067621,-0.807509 2.642621,-1.460616 3.5,-1.45135 0.884897,0.0096 0.153741,0.916714 -1.69113,2.098201 -1.7875,1.144745 -3.25,2.261338 -3.25,2.481317 0,0.219979 2.1375,1.742238 4.75,3.382798 2.6125,1.64056 4.075,2.989704 3.25,2.998099 -0.825,0.0084 -2.973376,-0.883056 -4.77417,-1.981 -4.67259,-2.848879 -5.335002,-2.550379 -5.00135,2.253738 l 0.295168,4.25 9.336443,0.2888 c 5.135043,0.15884 9.180622,-0.06616 8.990176,-0.5 -1.436554,-3.272488 -19.229712,-32.2888 -19.799888,-32.2888 -0.398942,0 -1.276337,1.2375 -1.949766,2.75 C 18.25367,71.949706 9.4104442,87.27552 9.1174332,86.396488 8.9452162,85.879836 11.742046,80.20714 15.332613,73.790499 c 3.590566,-6.416642 6.528302,-11.890934 6.528302,-12.165095 0,-0.27416 -3.7125,-0.551715 -8.25,-0.616788 -9.0691828,-0.130063 -6.6608588,-1.545652 3,-1.76337 2.8875,-0.06507 5.25,-0.352963 5.25,-0.639755 0,-0.286792 -1.049775,-2.199292 -2.332833,-4.25 -6.395801,-10.222386 -9.8184838,-16.410577 -9.340854,-16.888208 0.594675,-0.594675 3.667775,4.126686 8.728242,13.409648 1.873902,3.4375 3.744077,6.25 4.155946,6.25 0.411868,0 1.61389,-1.6875 2.67116,-3.75 1.05727,-2.0625 5.073813,-9.2625 8.92565,-16 l 7.003342,-12.25 -8.405326,0 c -4.62293,0 -8.405498,-0.3375 -8.405707,-0.75 -2.09e-4,-0.4125 3.824791,-0.68946 8.5,-0.615466 4.675209,0.07399 8.50038,-0.04745 8.50038,-0.269871 0,-0.222424 -1.207509,-2.307964 -2.683352,-4.634535 -4.549429,-7.171874 -9.387169,-15.9929405 -8.989247,-16.390863 0.208115,-0.2081152 2.77417,3.567912 5.702343,8.391172 2.928174,4.82326 5.864753,9.579213 6.525731,10.568786 1.059718,1.586536 1.887848,0.613167 7.005585,-8.234234 3.192093,-5.5184016 5.988423,-9.8488399 6.214066,-9.6231966 0.527586,0.527586 -8.621518,17.3452386 -9.848738,18.1037026 -2.405465,1.486659 -0.205403,1.977783 8.073612,1.802289 4.960202,-0.105143 9,0.222853 9,0.73072 0,0.506823 -3.825,0.921496 -8.5,0.921496 -4.675,0 -8.5,0.209816 -8.5,0.466259 0,0.256442 1.6875,3.105019 3.75,6.330171 2.0625,3.225152 6.225,10.199532 9.25,15.498622 3.025,5.29909 5.725,9.645435 6,9.658545 0.275,0.01311 2.967284,-4.471086 5.982853,-9.96488 3.015569,-5.493794 5.843902,-9.988717 6.285184,-9.988717 0.928007,0 0.157805,1.518093 -6.435457,12.684499 -2.657919,4.501475 -4.83258,8.421455 -4.83258,8.711068 0,0.289612 3.9375,0.676551 8.75,0.859865 l 8.75,0.333298 -8.75,0.205635 c -4.8125,0.113099 -8.75,0.460871 -8.75,0.772827 0,0.311955 3.205662,5.824455 7.123693,12.25 3.918031,6.425544 7.319589,12.020308 7.559017,12.432808 0.239428,0.4125 0.07127,0.742501 -0.373693,0.733336 -0.444959,-0.0092 -4.184017,-5.63297 -8.309017,-12.497344 l -7.5,-12.480682 -19.25,-0.0027 c -10.5875,-0.0015 -19.25,0.204004 -19.25,0.456587 0,0.252583 1.226762,2.49023 2.726138,4.97255 l 2.726137,4.513307 12.941979,0.277451 c 9.260556,0.198528 13.060089,0.63302 13.357195,1.52745 0.316875,0.953943 -2.446666,1.25 -11.668116,1.25 -6.645833,0 -12.083333,0.265502 -12.083333,0.590004 0,0.324503 2.808973,5.274503 6.242161,11 l 6.242162,10.409996 8.757838,0 c 11.242448,0 11.522203,1.827267 0.338515,2.211067 l -8.419325,0.288933 5.919325,9.973654 c 3.255628,5.48551 5.919324,10.41301 5.919324,10.94999 0,1.55481 -1.205011,-0.19192 -7.363414,-10.67366 -3.150662,-5.36249 -5.909234,-9.749984 -6.130161,-9.749984 -0.220926,0 -2.527318,3.937494 -5.125316,8.749994 -5.563036,10.30489 -7.381109,13.13554 -7.381109,11.492 z M 62.154777,58.499736 c 1.160462,-1.160462 -5.38228,-9.552854 -6.971891,-8.942862 -0.81705,0.313531 -6.736242,0.573523 -13.153758,0.577759 l -11.668213,0.0077 -2.25,3.940416 c -1.2375,2.167229 -2.25,4.188763 -2.25,4.492298 0,0.769658 35.522603,0.695946 36.293862,-0.07531 z M 54.860915,46.208703 c 0,-0.505026 -2.548129,-5.002869 -5.662509,-9.995207 l -5.662509,-9.076979 -4.403677,7.745207 c -2.422022,4.259864 -4.823893,8.172707 -5.337491,8.695207 -0.513598,0.5225 -0.933814,1.535 -0.933814,2.25 0,0.987879 2.641026,1.3 11,1.3 6.05,0 11,-0.413203 11,-0.918228 z m -26.5,66.270997 c -1.65,-0.86193 -3.5625,-2.27992 -4.25,-3.15109 -1.48455,-1.88115 -1.68845,-10.201679 -0.25,-10.201679 0.55,0 1,1.799999 1,3.999999 0,2.2 0.234648,4 0.52144,4 0.286792,0 2.32094,-1.19085 4.520328,-2.64634 2.199388,-1.45548 4.250068,-2.39516 4.557066,-2.08816 0.306997,0.307 -1.577477,1.80975 -4.187721,3.33946 -4.173349,2.44574 -4.530439,2.90878 -2.959941,3.83815 6.042514,3.57579 6.905143,5.96889 1.048828,2.90966 z m 32.408637,-1.56827 c 3.063261,-1.96073 3.228565,-2.28831 1.631436,-3.23314 -0.977462,-0.57825 -2.736348,-1.85946 -3.908638,-2.84713 -1.790423,-1.50847 -1.45147,-1.46522 2.118565,0.27032 l 4.25,2.0661 0,-10.520325 c 0,-5.786178 -0.233942,-10.520324 -0.519872,-10.520324 -0.285929,0 -2.353445,1.157484 -4.59448,2.572187 -2.241034,1.414703 -4.332092,2.314703 -4.646794,2 -0.7034,-0.7034 -0.738215,-0.674805 4.685901,-3.848728 l 4.424754,-2.589147 -3.674754,-1.752368 c -2.021115,-0.963803 -3.674755,-2.128169 -3.674755,-2.58748 0,-0.459312 1.77658,0.07123 3.947956,1.178985 l 3.947957,2.014097 0.367061,-5.243773 0.367061,-5.243773 0.184983,5.27568 0.184982,5.27568 3.09293,-1.599416 c 4.36143,-2.255383 4.724836,-1.13199 0.449768,1.390362 l -3.542698,2.090243 0,12.048424 0,12.048416 -3.25,1.98156 c -4.434098,2.70352 -6.098999,2.49877 -1.841363,-0.22645 z M 49.924522,85.126931 c 0,-0.825 0.660688,-2.373508 1.468196,-3.44113 1.109006,-1.466237 1.468197,-1.574158 1.468197,-0.441129 0,0.825 -0.660688,2.373508 -1.468197,3.441129 -1.109006,1.466238 -1.468196,1.574159 -1.468196,0.44113 z M 6.3319212,75.795837 c -3.913058,-2.189983 -3.972442,-2.309583 -4.069371,-8.19566 -0.07953,-4.829266 -0.02115,-5.063539 0.304791,-1.223246 0.221735,2.6125 0.583697,4.75 0.804358,4.75 0.220661,0 2.671005,-1.338324 5.445209,-2.974053 6.3306638,-3.732693 6.6698638,-2.555413 0.404276,1.403145 l -4.636153,2.929093 2.151321,1.742034 c 1.183226,0.958119 2.7078,1.94092 3.3879408,2.184003 0.680142,0.243082 0.998574,0.704123 0.707628,1.024533 -0.290946,0.320411 -2.3159458,-0.417522 -4.4999998,-1.639849 z M 80.610915,75.011883 c 3.659298,-2.343476 4.057527,-3.489228 1.5,-4.315682 -0.9625,-0.311028 -3.1,-1.726009 -4.75,-3.144403 -2.786682,-2.395524 -2.595155,-2.357183 2.693531,0.539199 l 5.693531,3.118099 0.376221,-4.791083 0.376221,-4.791082 0.180248,5.565859 c 0.177825,5.491024 0.127997,5.595225 -3.705907,7.75 -4.936254,2.77433 -6.667021,2.824919 -2.363845,0.06909 z M 43.939862,63.543598 c 0.04798,-1.164943 0.284941,-1.4019 0.604167,-0.604167 0.288871,0.721875 0.253344,1.584375 -0.07895,1.916667 -0.332292,0.332291 -0.568641,-0.258334 -0.52522,-1.3125 z M 2.0290222,54.945025 c -0.157189,-6.247921 0.0105,-6.805658 2.581892,-8.587275 1.5125,-1.047953 3.560872,-2.198441 4.551938,-2.556639 2.8192128,-1.018943 0.9761498,1.130655 -2.519172,2.938156 l -3.090409,1.598113 4.653821,2.896612 c 2.5596018,1.593137 4.6538228,3.106663 4.6538228,3.363391 0,0.676586 -3.0396078,-0.565203 -6.5000008,-2.655484 l -3,-1.812177 -0.581892,5.748604 -0.581893,5.748605 -0.168107,-6.681906 z M 84.860915,53.626931 c 0,-4.10338 -0.194525,-4.16093 -4.684565,-1.385932 -1.881348,1.162737 -3.661038,1.873662 -3.954867,1.579834 -0.293828,-0.293829 1.301375,-1.582659 3.544897,-2.864068 2.243522,-1.281409 4.082597,-2.595102 4.086833,-2.919319 0.0042,-0.324217 -1.17545,-1.128565 -2.621524,-1.787441 -1.446074,-0.658875 -2.377229,-1.449952 -2.069234,-1.757948 0.307996,-0.307996 1.941148,0.255876 3.629227,1.253048 2.745338,1.621712 3.069233,2.317935 3.069233,6.597434 0,2.631415 -0.225,4.784392 -0.5,4.784392 -0.275,0 -0.5,-1.575 -0.5,-3.5 z m -62.25,-7.073775 c -0.4125,-0.417757 -0.75,-2.308342 -0.75,-4.2013 0,-3.238421 -0.162456,-3.405076 -2.75,-2.821089 l -2.75,0.620651 2.75,-2.299808 c 2.189453,-1.831026 2.75,-3.146421 2.75,-6.453227 0,-2.28438 0.45,-4.431533 1,-4.771452 0.610395,-0.377245 1,1.145041 1,3.907258 l 0,4.525291 3.542698,-2.090243 c 1.948484,-1.149633 3.805198,-1.827743 4.126032,-1.50691 0.320833,0.320834 -1.071711,1.559834 -3.094542,2.753333 l -3.677876,2.17 3.051844,1.855937 c 1.678514,1.020765 3.051844,2.045423 3.051844,2.277016 0,0.731784 -4.006194,-0.592686 -4.574601,-1.512389 -1.277052,-2.066314 -2.336692,-0.564725 -2.620608,3.713599 -0.167635,2.52609 -0.642291,4.25109 -1.054791,3.833333 z m 41.430248,-3.783214 c -0.155577,-4.192194 -0.419777,-4.760777 -1.930248,-4.154066 -3.912047,1.571353 -4.661584,1.605912 -2.75,0.126796 1.1,-0.851141 2.5625,-2.030619 3.25,-2.621062 0.6875,-0.590442 1.25,-3.15579 1.25,-5.700772 0,-5.858406 1.037112,-5.081662 1.156498,0.866158 0.07997,3.984133 0.450771,4.641543 3.716168,6.588568 2.212011,1.318934 2.967542,2.180106 1.936351,2.2071 -0.930041,0.02435 -1.969098,-0.405733 -2.309017,-0.955733 -0.339919,-0.55 -1.24182,-1 -2.004226,-1 -0.934468,0 -1.508245,1.5479 -1.760735,4.75 l -0.374543,4.75 -0.180248,-4.856989 z m -5.930248,-9.632051 c -4.560793,-2.780769 -4.055142,-3.46236 0.75,-1.01096 3.77377,1.925234 4.944659,3.004708 3.25,2.996262 -0.4125,-0.0021 -2.2125,-0.895442 -4,-1.985302 z m -35.5,-8.586359 c -0.4125,-0.416864 -0.75,-3.300071 -0.75,-6.407127 0,-5.521787 0.08764,-5.69845 3.886155,-7.833333 4.935557,-2.7739389 6.667279,-2.8250878 2.365049,-0.06986 -3.732789,2.390551 -3.526527,3.162371 1.563594,5.850872 2.026861,1.070547 3.010202,1.964656 2.185202,1.986908 -0.825,0.02225 -2.940637,-0.83795 -4.701416,-1.91156 l -3.201417,-1.952018 -0.298583,5.547023 c -0.164221,3.050868 -0.636084,5.205959 -1.048584,4.789095 z m 41.44268,-4.674601 c -0.105974,-3.1625 -0.391958,-5.75 -0.63552,-5.75 -0.243562,0 -2.062776,0.955786 -4.042698,2.123968 -1.979922,1.168183 -3.849252,1.874576 -4.154066,1.569762 -0.304814,-0.304814 1.377521,-1.539702 3.738523,-2.744195 4.553497,-2.32302 4.567651,-2.218624 -0.762297,-5.6224403 -1.733005,-1.1067328 -1.723787,-1.14602 0.163378,-0.6963679 1.1,0.2620954 3.036375,1.2598472 4.303056,2.2172272 2.066088,1.561585 2.265976,2.404932 1.94268,8.196368 l -0.360377,6.455678 -0.192679,-5.75 z M 43.049999,7.8417468 C 42.869183,2.309535 42.769715,2.1053719 40.775269,3.1727671 37.719902,4.8079497 37.37082,3.6780731 40.331948,1.7378677 42.66373,0.2100253 43.111421,0.2051121 45.956086,1.6761457 47.655965,2.5551874 48.818498,3.5026811 48.539492,3.7816873 48.260486,4.0606934 47.116236,3.7987573 45.996714,3.1996081 44.07417,2.1706936 43.941185,2.4297745 43.600152,7.8685878 L 43.239084,13.626931 43.049999,7.8417468 z"
       style="fill:#000000" />
  </g>
  <g
     inkscape:groupmode="layer"
     id="layer4"
     inkscape:label="Layer#1"
     transform="translate(-0.71194427,0.5515391)">
    <path
       style="fill:#ffffff;fill-opacity:0.99215686"
       id="path3085-8"
       d="m 39.085821,117.4422 -3,-2.54096 3.20034,1.54593 c 4.14014,1.9999 3.96266,2.09929 3.48945,-1.95407 -0.2501,-2.14231 0.0217,-3.5 0.7008,-3.5 0.61018,0 1.10941,1.58656 1.10941,3.52568 l 0,3.52568 3.09293,-1.59942 c 4.39332,-2.27187 4.70999,-1.12323 0.39261,1.42409 -4.57543,2.69957 -5.33694,2.66339 -8.98554,-0.42693 z m -7.5,0.79291 c 0,-0.66165 2.477765,-5.59928 5.506144,-10.97251 l 5.506146,-9.769501 -10.506146,-0.28383 -10.506144,-0.28383 0,-6.36739 c 0,-6.25917 -0.06163,-6.40376 -3.626032,-8.50681 -4.303146,-2.53892 -3.902414,-3.89989 0.480888,-1.63319 l 3.040716,1.57241 0.367232,-5.24868 0.367231,-5.24868 0.184983,5.25 c 0.197613,5.60848 0.592112,6.013 3.626112,3.7182 1.067621,-0.80751 2.642621,-1.46062 3.5,-1.45135 0.884897,0.01 0.153741,0.91671 -1.69113,2.0982 -1.7875,1.14475 -3.25,2.26134 -3.25,2.48132 0,0.21998 2.1375,1.74224 4.75,3.3828 2.6125,1.64056 4.075,2.9897 3.25,2.99809 -0.825,0.008 -2.973376,-0.88305 -4.77417,-1.981 -4.67259,-2.84887 -5.335002,-2.55037 -5.00135,2.25374 l 0.295168,4.25 9.336443,0.2888 c 5.135043,0.15884 9.180619,-0.0662 8.990179,-0.5 -1.43656,-3.27249 -19.229715,-32.2888 -19.799891,-32.2888 -0.398942,0 -1.276337,1.2375 -1.949766,2.75 -2.703858,6.07278 -11.5470825,21.39859 -11.8400935,20.51956 -0.172217,-0.51665 2.6246115,-6.18935 6.2151785,-12.60599 3.590566,-6.41664 6.528302,-11.89093 6.528302,-12.16509 0,-0.27416 -3.7125,-0.55172 -8.25,-0.61679 -9.0691815,-0.13007 -6.6608575,-1.54565 3,-1.76337 2.8875,-0.0651 5.25,-0.35297 5.25,-0.63976 0,-0.28679 -1.049775,-2.19929 -2.332833,-4.25 C 11.857187,42.999275 8.4345055,36.811084 8.9121355,36.333453 c 0.594675,-0.594675 3.6677735,4.126686 8.7282405,13.409648 1.873902,3.437498 3.744077,6.249998 4.155946,6.249998 0.411868,0 1.61389,-1.6875 2.67116,-3.75 1.05727,-2.062498 5.073813,-9.262498 8.92565,-15.999998 l 7.003339,-12.25 -8.405323,0 c -4.62293,0 -8.405498,-0.3375 -8.405707,-0.75 -2.09e-4,-0.4125 3.824791,-0.68946 8.5,-0.615466 4.675209,0.07399 8.50038,-0.04745 8.50038,-0.269871 0,-0.222424 -1.20751,-2.307964 -2.68335,-4.634535 C 33.35304,10.551355 28.5153,1.7302893 28.913222,1.3323673 c 0.208115,-0.208115 2.77417,3.567912 5.702343,8.3911707 2.928174,4.82326 5.864756,9.579213 6.525736,10.568786 1.05971,1.586536 1.88784,0.613167 7.00558,-8.234234 3.19209,-5.5184007 5.98842,-9.8488387 6.21407,-9.6231957 0.52758,0.527586 -8.62152,17.3452377 -9.84874,18.1037017 -2.40547,1.486659 -0.2054,1.977783 8.07361,1.802289 4.9602,-0.105143 9,0.222853 9,0.73072 0,0.506823 -3.825,0.921496 -8.5,0.921496 -4.675,0 -8.5,0.209816 -8.5,0.466259 0,0.256442 1.6875,3.105019 3.75,6.330171 2.0625,3.225152 6.225,10.199532 9.25,15.498622 3.025,5.299086 5.725,9.645436 6,9.658546 0.275,0.0131 2.96728,-4.47109 5.98285,-9.964881 3.01557,-5.493794 5.84391,-9.988717 6.28519,-9.988717 0.928,0 0.1578,1.518093 -6.43546,12.684499 -2.65792,4.501479 -4.83258,8.421459 -4.83258,8.711069 0,0.28961 3.9375,0.67655 8.75,0.85986 l 8.75,0.3333 -8.75,0.20564 c -4.8125,0.1131 -8.75,0.46087 -8.75,0.77282 0,0.31196 3.20566,5.82446 7.12369,12.25 3.91803,6.42555 7.31959,12.02031 7.55902,12.43281 0.23943,0.4125 0.0713,0.7425 -0.37369,0.73334 -0.44496,-0.009 -4.18402,-5.63297 -8.30902,-12.49735 l -7.5,-12.48068 -19.25,-0.003 c -10.5875,-0.001 -19.25,0.20401 -19.25,0.45659 0,0.25258 1.226762,2.49023 2.726138,4.97255 l 2.726137,4.51331 12.941975,0.27745 c 9.26056,0.19853 13.06009,0.63302 13.3572,1.52745 0.31687,0.95394 -2.44667,1.25 -11.66812,1.25 -6.64583,0 -12.08333,0.2655 -12.08333,0.59 0,0.3245 2.808973,5.2745 6.24216,11 l 6.24216,10.41 8.75784,0 c 11.24245,0 11.5222,1.82726 0.33852,2.21106 l -8.41933,0.28894 5.91933,9.973651 c 3.25562,5.48552 5.91932,10.41302 5.91932,10.95 0,1.55481 -1.20501,-0.19192 -7.36341,-10.67366 -3.15067,-5.3625 -5.90924,-9.749991 -6.13016,-9.749991 -0.22093,0 -2.52732,3.937491 -5.12532,8.749991 -5.563037,10.3049 -7.38111,13.13555 -7.38111,11.49201 z m 29.29386,-60.869201 c 1.16046,-1.16046 -5.38228,-9.552857 -6.97189,-8.942865 -0.81705,0.313531 -6.73624,0.573523 -13.15376,0.577759 l -11.66821,0.0077 -2.25,3.940416 c -1.2375,2.16723 -2.25,4.18876 -2.25,4.4923 0,0.76966 35.5226,0.69594 36.29386,-0.0753 z m -7.29386,-12.291036 c 0,-0.505026 -2.54813,-5.002869 -5.66251,-9.995207 l -5.66251,-9.076979 -4.403675,7.745207 c -2.422022,4.259864 -4.823893,8.172707 -5.337491,8.695207 -0.513598,0.5225 -0.933814,1.535 -0.933814,2.25 0,0.987879 2.641026,1.3 11,1.3 6.05,0 11,-0.413203 11,-0.918228 z m -26.5,66.271007 c -1.65,-0.86193 -3.5625,-2.27992 -4.25,-3.15109 -1.48455,-1.88116 -1.68845,-10.201691 -0.25,-10.201691 0.55,0 1,1.800002 1,4.000001 0,2.2 0.234648,4 0.52144,4 0.286792,0 2.32094,-1.19085 4.520328,-2.64634 2.199388,-1.45548 4.250068,-2.39516 4.557066,-2.08816 0.306997,0.307 -1.577477,1.80975 -4.187721,3.33946 -4.173349,2.44574 -4.530439,2.90878 -2.959941,3.83816 6.042514,3.57579 6.905143,5.96889 1.048828,2.90966 z m 32.40864,-1.56827 c 3.06326,-1.96073 3.22856,-2.28832 1.63143,-3.23315 -0.97746,-0.57825 -2.73634,-1.85946 -3.90863,-2.84713 -1.79043,-1.50847 -1.45147,-1.46522 2.11856,0.27032 l 4.25,2.0661 0,-10.520321 c 0,-5.78618 -0.23394,-10.52033 -0.51987,-10.52033 -0.28593,0 -2.35345,1.15749 -4.59448,2.57219 -2.24104,1.4147 -4.33209,2.3147 -4.6468,2 -0.7034,-0.7034 -0.73821,-0.67481 4.68591,-3.84873 l 4.42475,-2.58915 -3.67475,-1.75236 c -2.02112,-0.96381 -3.67476,-2.12817 -3.67476,-2.58748 0,-0.45932 1.77658,0.0712 3.94796,1.17898 l 3.94795,2.0141 0.36706,-5.24377 0.36707,-5.24378 0.18498,5.27568 0.18498,5.27568 3.09293,-1.59941 c 4.36143,-2.25539 4.72484,-1.13199 0.44977,1.39036 l -3.5427,2.09024 0,12.04843 0,12.048421 -3.25,1.98156 c -4.4341,2.70352 -6.099,2.49877 -1.84136,-0.22645 z M 48.649431,83.993099 c 0,-0.825 0.66069,-2.37351 1.46819,-3.44113 1.10901,-1.46623 1.4682,-1.57416 1.4682,-0.44113 0,0.825 -0.66069,2.37351 -1.4682,3.44113 -1.109,1.46624 -1.46819,1.57416 -1.46819,0.44113 z M 5.0568285,74.662009 c -3.913058,-2.18998 -3.972442,-2.30958 -4.06937101,-8.19566 -0.07953,-4.82927 -0.02115,-5.06354 0.30479101,-1.22325 0.221735,2.6125 0.583697,4.75 0.804358,4.75 0.220661,0 2.671005,-1.33832 5.445209,-2.97405 6.3306625,-3.73269 6.6698625,-2.55541 0.404276,1.40314 l -4.636153,2.9291 2.151321,1.74203 c 1.183226,0.95812 2.7078,1.94092 3.387941,2.184 0.680142,0.24309 0.998574,0.70413 0.707628,1.02454 -0.290946,0.32041 -2.315946,-0.41752 -4.5,-1.63985 z m 74.2789925,-0.78396 c 3.6593,-2.34347 4.05753,-3.48922 1.5,-4.31568 -0.9625,-0.31103 -3.1,-1.72601 -4.75,-3.1444 -2.78668,-2.39552 -2.59515,-2.35718 2.69353,0.5392 l 5.69353,3.1181 0.37622,-4.79109 0.37622,-4.79108 0.18025,5.56586 c 0.17783,5.49103 0.128,5.59523 -3.7059,7.75 -4.93626,2.77433 -6.66703,2.82492 -2.36385,0.0691 z m -36.67105,-11.46828 c 0.048,-1.16494 0.28494,-1.4019 0.60416,-0.60417 0.28888,0.72188 0.25335,1.58438 -0.079,1.91667 -0.33229,0.33229 -0.56864,-0.25833 -0.52522,-1.3125 z M 0.75392949,53.811199 c -0.157189,-6.247925 0.0105,-6.805662 2.58189201,-8.587279 1.5125,-1.047953 3.560872,-2.198441 4.551938,-2.556639 2.8192115,-1.018943 0.97615,1.130655 -2.519172,2.938156 l -3.090409,1.598113 4.653821,2.896612 c 2.559602,1.593137 4.6538215,3.106667 4.6538215,3.363387 0,0.67659 -3.0396065,-0.5652 -6.4999995,-2.65548 l -3,-1.812177 -0.581892,5.748607 -0.58189301,5.7486 -0.168107,-6.6819 z m 82.83189151,-1.3181 c 0,-4.103378 -0.19452,-4.160928 -4.68456,-1.38593 -1.88135,1.16274 -3.66104,1.87366 -3.95487,1.57983 -0.29383,-0.29382 1.30137,-1.582655 3.5449,-2.864064 2.24352,-1.281409 4.08259,-2.595102 4.08683,-2.919319 0.004,-0.324217 -1.17545,-1.128565 -2.62153,-1.787441 -1.44607,-0.658875 -2.37722,-1.449952 -2.06923,-1.757948 0.308,-0.307996 1.94115,0.255876 3.62923,1.253048 2.74534,1.621712 3.06923,2.317935 3.06923,6.597434 0,2.63142 -0.225,4.78439 -0.5,4.78439 -0.275,0 -0.5,-1.575 -0.5,-3.5 z m -62.25,-7.073773 c -0.4125,-0.417757 -0.75,-2.308342 -0.75,-4.2013 0,-3.238421 -0.162456,-3.405076 -2.75,-2.821089 l -2.75,0.620651 2.75,-2.299808 c 2.189453,-1.831026 2.75,-3.146421 2.75,-6.453227 0,-2.28438 0.45,-4.431533 1,-4.771452 0.610395,-0.377245 1,1.145041 1,3.907258 l 0,4.525291 3.542698,-2.090243 c 1.948484,-1.149633 3.805198,-1.827743 4.126032,-1.50691 0.320833,0.320834 -1.071711,1.559834 -3.094542,2.753333 l -3.677876,2.17 3.051844,1.855937 c 1.678514,1.020765 3.051844,2.045423 3.051844,2.277016 0,0.731784 -4.006194,-0.592686 -4.574601,-1.512389 -1.277052,-2.066314 -2.336692,-0.564725 -2.620608,3.713599 -0.167635,2.52609 -0.642291,4.25109 -1.054791,3.833333 z m 41.43025,-3.783214 c -0.15558,-4.192194 -0.41978,-4.760777 -1.93025,-4.154066 -3.91205,1.571353 -4.66158,1.605912 -2.75,0.126796 1.1,-0.851141 2.5625,-2.030619 3.25,-2.621062 0.6875,-0.590442 1.25,-3.15579 1.25,-5.700772 0,-5.858406 1.03711,-5.081662 1.1565,0.866158 0.08,3.984133 0.45077,4.641543 3.71617,6.588568 2.21201,1.318934 2.96754,2.180106 1.93635,2.2071 -0.93004,0.02435 -1.9691,-0.405733 -2.30902,-0.955733 -0.33992,-0.55 -1.24182,-1 -2.00423,-1 -0.93446,0 -1.50824,1.5479 -1.76073,4.75 l -0.37454,4.75 -0.18025,-4.856989 z m -5.93025,-9.632051 c -4.56079,-2.780769 -4.05514,-3.46236 0.75,-1.01096 3.77377,1.925234 4.94466,3.004708 3.25,2.996262 -0.4125,-0.0021 -2.2125,-0.895442 -4,-1.985302 z m -35.5,-8.586359 c -0.4125,-0.416864 -0.75,-3.300071 -0.75,-6.407127 0,-5.521787 0.08764,-5.69845 3.886155,-7.833333 4.935557,-2.7739377 6.667279,-2.8250867 2.365049,-0.06986 -3.732789,2.390551 -3.526527,3.162371 1.563594,5.850872 2.026861,1.070547 3.010202,1.964656 2.185202,1.986908 -0.825,0.02225 -2.940637,-0.83795 -4.701416,-1.91156 l -3.201417,-1.952018 -0.298583,5.547023 c -0.164221,3.050868 -0.636084,5.205959 -1.048584,4.789095 z m 41.44268,-4.674601 c -0.10597,-3.1625 -0.39196,-5.75 -0.63552,-5.75 -0.24356,0 -2.06278,0.955786 -4.0427,2.123968 -1.97992,1.168183 -3.84925,1.874576 -4.15406,1.569762 -0.30482,-0.304814 1.37752,-1.539702 3.73852,-2.744195 4.5535,-2.32302 4.56765,-2.218624 -0.7623,-5.6224387 -1.733,-1.106733 -1.72378,-1.14602 0.16338,-0.696368 1.1,0.262095 3.03638,1.2598467 4.30306,2.2172257 2.06608,1.561585 2.26597,2.404932 1.94268,8.196368 l -0.36038,6.455678 -0.19268,-5.75 z M 41.774901,6.7079183 c -0.18081,-5.532212 -0.28028,-5.73637499 -2.27473,-4.66898 -3.055363,1.635183 -3.404445,0.505306 -0.44332,-1.43489899 2.33179,-1.52784297 2.77948,-1.53275597 5.62414,-0.06172 1.69988,0.87904099 2.86241,1.82653499 2.58341,2.10554099 -0.27901,0.279006 -1.42326,0.01707 -2.54278,-0.582079 -1.92254,-1.028915 -2.05553,-0.769834 -2.39656,4.66898 l -0.36107,5.7583417 -0.18909,-5.7851827 z"
       inkscape:connector-curvature="0" />
    <animate
       id="animate3614"
       attributeType="XML"
       attributeName="opacity"
       begin="2s"
       dur="2s"
       from="0"
       to="1" />
  </g>
</svg>
