<?xml version="1.0" encoding="UTF-8" standalone="no"?>
<!-- Created with Inkscape (http://www.inkscape.org/) -->
<?xml-stylesheet type="text/css" href="../main.css"?>
<svg
   xmlns:dc="http://purl.org/dc/elements/1.1/"
   xmlns:cc="http://creativecommons.org/ns#"
   xmlns:rdf="http://www.w3.org/1999/02/22-rdf-syntax-ns#"
   xmlns:svg="http://www.w3.org/2000/svg"
   xmlns="http://www.w3.org/2000/svg"
   xmlns:sodipodi="http://sodipodi.sourceforge.net/DTD/sodipodi-0.dtd"
   xmlns:inkscape="http://www.inkscape.org/namespaces/inkscape"
   id="svglogo"
   viewBox="0 0 86.022 121.52"
   version="1.1"
   inkscape:version="0.48.2 r9819"
   width="100%"
   height="100%"
   sodipodi:docname="logo_black.svg">
  <defs
     id="defs3669">
  </defs>
  <metadata
     id="metadata3077">
    <rdf:RDF>
      <cc:Work
         rdf:about="">
        <dc:format>image/svg+xml</dc:format>
        <dc:type
           rdf:resource="http://purl.org/dc/dcmitype/StillImage" />
        <dc:title />
      </cc:Work>
    </rdf:RDF>
  </metadata>
  <g
     id="layer3"
     transform="translate(-0.71194427,0.5515391)"
     style="opacity:0.75">
    <animate
       values="0;0;0;0;0.75"
       dur="2.5"
       attributeName="opacity"
       attributeType="XML"
       id="animate3677" />
    <path
       id="white"
       d="m40.361,118.58-3-2.541,3.2003,1.5459c4.1401,1.9999,3.9627,2.0993,3.4895-1.9541-0.2501-2.1423,0.02174-3.5,0.7008-3.5,0.61017,0,1.1094,1.5866,1.1094,3.5257v3.5257l3.0929-1.5994c4.3933-2.2719,4.71-1.1232,0.39261,1.4241-4.5754,2.6996-5.3369,2.6634-8.9855-0.42693zm-7.5,0.79291c0-0.66165,2.4778-5.5993,5.5061-10.972l5.5061-9.7695-10.506-0.28383-10.506-0.28383v-6.3674c0-6.2592-0.06163-6.4038-3.626-8.5068-4.3031-2.5389-3.9024-3.8999,0.48089-1.6332l3.0407,1.5724,0.36723-5.2487,0.36723-5.2487,0.18498,5.25c0.19761,5.6085,0.59211,6.013,3.6261,3.7182,1.0676-0.80751,2.6426-1.4606,3.5-1.4514,0.8849,0.0096,0.15374,0.91671-1.6911,2.0982-1.7875,1.1447-3.25,2.2613-3.25,2.4813,0,0.21998,2.1375,1.7422,4.75,3.3828s4.075,2.9897,3.25,2.9981-2.9734-0.88306-4.7742-1.981c-4.6726-2.8489-5.335-2.5504-5.0014,2.2537l0.29517,4.25,9.3364,0.2888c5.135,0.15884,9.1806-0.06616,8.9902-0.5-1.4366-3.2725-19.23-32.289-19.8-32.289-0.39894,0-1.2763,1.2375-1.9498,2.75-2.903,7.061-11.747,22.387-12.04,21.507-0.1722-0.516,2.6246-6.189,6.2156-12.606,3.5906-6.4166,6.5283-11.891,6.5283-12.165,0-0.27416-3.7125-0.55172-8.25-0.61679-9.0692-0.13006-6.6609-1.5457,3-1.7634,2.8875-0.06507,5.25-0.35296,5.25-0.63976,0-0.28679-1.0498-2.1993-2.3328-4.25-6.3958-10.222-9.8185-16.411-9.3409-16.888,0.59468-0.59468,3.6678,4.1267,8.7282,13.41,1.8739,3.4375,3.7441,6.25,4.1559,6.25,0.41187,0,1.6139-1.6875,2.6712-3.75s5.0738-9.2625,8.9256-16l7.0033-12.25h-8.4053c-4.6229,0-8.4055-0.3375-8.4057-0.75-0.000209-0.4125,3.8248-0.68946,8.5-0.61547s8.5004-0.04745,8.5004-0.26987-1.2075-2.308-2.6834-4.6345c-4.5494-7.1719-9.3872-15.993-8.9892-16.391,0.20812-0.20812,2.7742,3.5679,5.7023,8.3912,2.9282,4.8233,5.8648,9.5792,6.5257,10.569,1.0597,1.5865,1.8878,0.61317,7.0056-8.2342,3.1921-5.5184,5.9884-9.8488,6.2141-9.6232,0.52759,0.52759-8.6215,17.345-9.8487,18.104-2.4055,1.4867-0.2054,1.9778,8.0736,1.8023,4.9602-0.10514,9,0.22285,9,0.73072,0,0.50682-3.825,0.9215-8.5,0.9215s-8.5,0.20982-8.5,0.46626,1.6875,3.105,3.75,6.3302,6.225,10.2,9.25,15.499c3.025,5.2991,5.725,9.6454,6,9.6585,0.275,0.01311,2.9673-4.4711,5.9829-9.9649s5.8439-9.9887,6.2852-9.9887c0.92801,0,0.1578,1.5181-6.4355,12.684-2.6579,4.5015-4.8326,8.4215-4.8326,8.7111,0,0.28961,3.9375,0.67655,8.75,0.85986l8.75,0.3333-8.75,0.20564c-4.8125,0.1131-8.75,0.46087-8.75,0.77283s3.2057,5.8245,7.1237,12.25,7.3196,12.02,7.559,12.433c0.23943,0.4125,0.07127,0.7425-0.37369,0.73334-0.44496-0.0092-4.184-5.633-8.309-12.497l-7.5-12.481-19.25-0.0027c-10.588-0.0015-19.25,0.204-19.25,0.45659,0,0.25258,1.2268,2.4902,2.7261,4.9726l2.7261,4.5133,12.942,0.27745c9.2606,0.19853,13.06,0.63302,13.357,1.5274,0.31688,0.95394-2.4467,1.25-11.668,1.25-6.6458,0-12.083,0.2655-12.083,0.59s2.809,5.2745,6.2422,11l6.2422,10.41h8.7578c11.242,0,11.522,1.8273,0.33852,2.2111l-8.4193,0.28893,5.9193,9.9737c3.2556,5.4855,5.9193,10.413,5.9193,10.95,0,1.5548-1.205-0.19192-7.3634-10.674-3.1507-5.3625-5.9092-9.75-6.1302-9.75-0.22093,0-2.5273,3.9375-5.1253,8.75-5.563,10.305-7.3811,13.136-7.3811,11.492zm29.094-59.88c1.1605-1.1605-5.3823-9.5529-6.9719-8.9429-0.81705,0.31353-6.7362,0.57352-13.154,0.57776l-11.668,0.0077-2.25,3.9404c-1.2375,2.1672-2.25,4.1888-2.25,4.4923,0,0.76966,35.523,0.69595,36.294-0.07531zm-7.294-12.291c0-0.50503-2.5481-5.0029-5.6625-9.9952l-5.6625-9.077-4.4037,7.7452c-2.422,4.2599-4.8239,8.1727-5.3375,8.6952s-0.93381,1.535-0.93381,2.25c0,0.98788,2.641,1.3,11,1.3,6.05,0,11-0.4132,11-0.91823zm-26.5,66.271c-1.65-0.86193-3.5625-2.2799-4.25-3.1511-1.4846-1.8812-1.6884-10.202-0.25-10.202,0.55,0,1,1.8,1,4s0.23465,4,0.52144,4,2.3209-1.1908,4.5203-2.6463,4.2501-2.3952,4.5571-2.0882-1.5775,1.8098-4.1877,3.3395c-4.1733,2.4457-4.5304,2.9088-2.9599,3.8382,6.0425,3.5758,6.9051,5.9689,1.0488,2.9097zm32.409-1.5683c3.0633-1.9607,3.2286-2.2883,1.6314-3.2331-0.97746-0.57825-2.7363-1.8595-3.9086-2.8471-1.7904-1.5085-1.4515-1.4652,2.1186,0.27032l4.25,2.0661v-10.52c0-5.7862-0.23394-10.52-0.51987-10.52s-2.3534,1.1575-4.5945,2.5722c-2.241,1.4147-4.3321,2.3147-4.6468,2-0.7034-0.7034-0.73822-0.6748,4.6859-3.8487l4.4248-2.5891-3.6748-1.7524c-2.0211-0.9638-3.6748-2.1282-3.6748-2.5875,0-0.45931,1.7766,0.07123,3.948,1.179l3.948,2.0141,0.36706-5.2438,0.36706-5.2438,0.18498,5.2757,0.18498,5.2757,3.0929-1.5994c4.3614-2.2554,4.7248-1.132,0.44977,1.3904l-3.5427,2.0902v12.048,12.048l-3.25,1.9816c-4.4341,2.7035-6.099,2.4988-1.8414-0.22645zm-10.845-25.783c0-0.825,0.66069-2.3735,1.4682-3.4411,1.109-1.4662,1.4682-1.5742,1.4682-0.44113,0,0.825-0.66069,2.3735-1.4682,3.4411-1.109,1.4662-1.4682,1.5742-1.4682,0.44113zm-43.593-9.331c-3.9131-2.19-3.9724-2.3096-4.0694-8.1957-0.07953-4.8293-0.02115-5.0635,0.30479-1.2232,0.22174,2.6125,0.5837,4.75,0.80436,4.75s2.671-1.3383,5.4452-2.9741c6.3307-3.7327,6.6699-2.5554,0.40428,1.4031l-4.6362,2.9291,2.1513,1.742c1.1832,0.95812,2.7078,1.9409,3.3879,2.184,0.68014,0.24308,0.99857,0.70412,0.70763,1.0245-0.29095,0.32041-2.3159-0.41752-4.5-1.6398zm74.279-0.784c3.6593-2.3435,4.0575-3.4892,1.5-4.3157-0.9625-0.31103-3.1-1.726-4.75-3.1444-2.7867-2.3955-2.5952-2.3572,2.6935,0.5392l5.6935,3.1181,0.37622-4.7911,0.37622-4.7911,0.18025,5.5659c0.17782,5.491,0.128,5.5952-3.7059,7.75-4.9363,2.7743-6.667,2.8249-2.3638,0.06909zm-36.671-11.468c0.04798-1.1649,0.28494-1.4019,0.60417-0.60417,0.28887,0.72188,0.25334,1.5844-0.07895,1.9167-0.33229,0.33229-0.56864-0.25833-0.52522-1.3125zm-41.911-8.599c-0.15719-6.2479,0.0105-6.8057,2.5819-8.5873,1.5125-1.048,3.5609-2.1984,4.5519-2.5566,2.8192-1.0189,0.97615,1.1307-2.5192,2.9382l-3.0904,1.5981,4.6538,2.8966c2.5596,1.5931,4.6538,3.1067,4.6538,3.3634,0,0.67659-3.0396-0.5652-6.5-2.6555l-3-1.8122-0.58189,5.7486-0.58189,5.7486-0.16811-6.6819zm82.832-1.318c0-4.1034-0.19452-4.1609-4.6846-1.3859-1.8813,1.1627-3.661,1.8737-3.9549,1.5798-0.29383-0.29383,1.3014-1.5827,3.5449-2.8641s4.0826-2.5951,4.0868-2.9193c0.0042-0.32422-1.1754-1.1286-2.6215-1.7874-1.4461-0.65888-2.3772-1.45-2.0692-1.7579,0.308-0.308,1.9411,0.25588,3.6292,1.253,2.7453,1.6217,3.0692,2.3179,3.0692,6.5974,0,2.6314-0.225,4.7844-0.5,4.7844s-0.5-1.575-0.5-3.5zm-62.25-7.0738c-0.4125-0.41776-0.75-2.3083-0.75-4.2013,0-3.2384-0.16246-3.4051-2.75-2.8211l-2.75,0.62065,2.75-2.2998c2.1895-1.831,2.75-3.1464,2.75-6.4532,0-2.2844,0.45-4.4315,1-4.7715,0.6104-0.37724,1,1.145,1,3.9073v4.5253l3.5427-2.0902c1.9485-1.1496,3.8052-1.8277,4.126-1.5069,0.32083,0.32083-1.0717,1.5598-3.0945,2.7533l-3.6779,2.17,3.0518,1.8559c1.6785,1.0208,3.0518,2.0454,3.0518,2.277,0,0.73178-4.0062-0.59269-4.5746-1.5124-1.2771-2.0663-2.3367-0.56472-2.6206,3.7136-0.16764,2.5261-0.64229,4.2511-1.0548,3.8333zm41.43-3.7832c-0.15558-4.1922-0.41978-4.7608-1.9302-4.1541-3.912,1.5714-4.6616,1.6059-2.75,0.1268,1.1-0.85114,2.5625-2.0306,3.25-2.6211,0.6875-0.59044,1.25-3.1558,1.25-5.7008,0-5.8584,1.0371-5.0817,1.1565,0.86616,0.07997,3.9841,0.45077,4.6415,3.7162,6.5886,2.212,1.3189,2.9675,2.1801,1.9364,2.2071-0.93004,0.02435-1.9691-0.40573-2.309-0.95573-0.33992-0.55-1.2418-1-2.0042-1-0.93447,0-1.5082,1.5479-1.7607,4.75l-0.37454,4.75-0.18025-4.857zm-5.9302-9.6321c-4.5608-2.7808-4.0551-3.4624,0.75-1.011,3.7738,1.9252,4.9447,3.0047,3.25,2.9963-0.4125-0.0021-2.2125-0.89544-4-1.9853zm-35.5-8.5864c-0.4125-0.41686-0.75-3.3001-0.75-6.4071,0-5.5218,0.08764-5.6984,3.8862-7.8333,4.9356-2.7739,6.6673-2.8251,2.365-0.06986-3.7328,2.3906-3.5265,3.1624,1.5636,5.8509,2.0269,1.0705,3.0102,1.9647,2.1852,1.9869-0.825,0.02225-2.9406-0.83795-4.7014-1.9116l-3.2014-1.952-0.29858,5.547c-0.16422,3.0509-0.63608,5.206-1.0486,4.7891zm41.443-4.6746c-0.10597-3.1625-0.39196-5.75-0.63552-5.75s-2.0628,0.95579-4.0427,2.124-3.8493,1.8746-4.1541,1.5698c-0.30481-0.30481,1.3775-1.5397,3.7385-2.7442,4.5535-2.323,4.5677-2.2186-0.7623-5.6224-1.733-1.1067-1.7238-1.146,0.16338-0.69637,1.1,0.2621,3.0364,1.2598,4.3031,2.2172,2.0661,1.5616,2.266,2.4049,1.9427,8.1964l-0.36038,6.4557-0.19268-5.75zm-21.004-12.035c-0.181-5.5322-0.28-5.7363-2.275-4.6689-3.055,1.6351-3.404,0.5053-0.443-1.4349,2.332-1.5279,2.779-1.5328,5.624-0.0618,1.7,0.8791,2.862,1.8266,2.583,2.1056s-1.423,0.0171-2.542-0.5821c-1.923-1.0289-2.056-0.7698-2.397,4.669l-0.361,5.7584-0.189-5.7853z"
       fill="#000" />
  </g>
  <g
     id="layer4"
     transform="translate(-0.71194427,0.5515391)"
     style="opacity:1">
    <path
       id="black"
       d="m39.086,117.44-3-2.541,3.2003,1.5459c4.1401,1.9999,3.9627,2.0993,3.4894-1.9541-0.2501-2.1423,0.0217-3.5,0.7008-3.5,0.61018,0,1.1094,1.5866,1.1094,3.5257v3.5257l3.0929-1.5994c4.3933-2.2719,4.71-1.1232,0.39261,1.4241-4.5754,2.6996-5.3369,2.6634-8.9855-0.42693zm-7.5,0.79291c0-0.66165,2.4778-5.5993,5.5061-10.973l5.5061-9.7695-10.506-0.28383-10.506-0.28383v-6.3674c0-6.2592-0.06163-6.4038-3.626-8.5068-4.3031-2.5389-3.9024-3.8999,0.48089-1.6332l3.0407,1.5724,0.36723-5.2487,0.36723-5.2487,0.18498,5.25c0.19761,5.6085,0.59211,6.013,3.6261,3.7182,1.0676-0.80751,2.6426-1.4606,3.5-1.4514,0.8849,0.01,0.15374,0.91671-1.6911,2.0982-1.7875,1.1448-3.25,2.2613-3.25,2.4813,0,0.21998,2.1375,1.7422,4.75,3.3828s4.075,2.9897,3.25,2.9981c-0.825,0.008-2.9734-0.88305-4.7742-1.981-4.6726-2.8489-5.335-2.5504-5.0014,2.2537l0.29517,4.25,9.3364,0.2888c5.135,0.15884,9.1806-0.0662,8.9902-0.5-1.4366-3.2725-19.23-32.289-19.8-32.289-0.39894,0-1.2763,1.2375-1.9498,2.75-2.7039,6.0728-11.547,21.399-11.84,20.52-0.17222-0.51665,2.6246-6.1894,6.2152-12.606s6.5283-11.891,6.5283-12.165c0-0.27416-3.7125-0.55172-8.25-0.61679-9.0692-0.13007-6.6609-1.5456,3-1.7634,2.8875-0.0651,5.25-0.35297,5.25-0.63976s-1.0498-2.1993-2.3328-4.25c-6.595-9.229-10.018-15.417-9.5399-15.895,0.59468-0.59468,3.6678,4.1267,8.7282,13.41,1.8739,3.4375,3.7441,6.25,4.1559,6.25,0.41187,0,1.6139-1.6875,2.6712-3.75s5.0738-9.2625,8.9256-16l7.0033-12.25h-8.4053c-4.6229,0-8.4055-0.3375-8.4057-0.75-0.000209-0.4125,3.8248-0.68946,8.5-0.61547s8.5004-0.04745,8.5004-0.26987-1.2075-2.308-2.6834-4.6345c-4.549-7.173-9.387-15.994-8.989-16.392,0.20812-0.20812,2.7742,3.5679,5.7023,8.3912,2.9282,4.8233,5.8648,9.5792,6.5257,10.569,1.0597,1.5865,1.8878,0.61317,7.0056-8.2342,3.1921-5.5184,5.9884-9.8488,6.2141-9.6232,0.52758,0.52759-8.6215,17.345-9.8487,18.104-2.4055,1.4867-0.2054,1.9778,8.0736,1.8023,4.9602-0.10514,9,0.22285,9,0.73072,0,0.50682-3.825,0.9215-8.5,0.9215s-8.5,0.20982-8.5,0.46626,1.6875,3.105,3.75,6.3302,6.225,10.2,9.25,15.499c3.025,5.2991,5.725,9.6454,6,9.6585s2.9673-4.4711,5.9828-9.9649c3.0156-5.4938,5.8439-9.9887,6.2852-9.9887,0.928,0,0.1578,1.5181-6.4355,12.684-2.6579,4.5015-4.8326,8.4215-4.8326,8.7111,0,0.28961,3.9375,0.67655,8.75,0.85986l8.75,0.3333-8.75,0.20564c-4.8125,0.1131-8.75,0.46087-8.75,0.77282,0,0.31196,3.2057,5.8245,7.1237,12.25,3.918,6.4256,7.3196,12.02,7.559,12.433,0.23943,0.4125,0.0713,0.7425-0.37369,0.73334-0.44496-0.009-4.184-5.633-8.309-12.497l-7.5-12.481-19.25-0.003c-10.588-0.001-19.25,0.20401-19.25,0.45659s1.2268,2.4902,2.7261,4.9726l2.7261,4.5133,12.942,0.27745c9.2606,0.19853,13.06,0.63302,13.357,1.5274,0.31687,0.95394-2.4467,1.25-11.668,1.25-6.6458,0-12.083,0.2655-12.083,0.59s2.809,5.2745,6.2422,11l6.2422,10.41h8.7578c11.242,0,11.522,1.8273,0.33852,2.2111l-8.4193,0.28894,5.9193,9.9737c3.2556,5.4855,5.9193,10.413,5.9193,10.95,0,1.5548-1.205-0.19192-7.3634-10.674-3.1507-5.3625-5.9092-9.75-6.1302-9.75-0.22093,0-2.5273,3.9375-5.1253,8.75-5.563,10.305-7.3811,13.136-7.3811,11.492zm29.294-60.869c1.1605-1.1605-5.3823-9.5529-6.9719-8.9429-0.81705,0.31353-6.7362,0.57352-13.154,0.57776l-11.668,0.0077-2.25,3.9404c-1.2375,2.1672-2.25,4.1888-2.25,4.4923,0,0.76966,35.523,0.69594,36.294-0.0753zm-7.2939-12.291c0-0.50503-2.5481-5.0029-5.6625-9.9952l-5.6625-9.077-4.4037,7.7452c-2.422,4.2599-4.8239,8.1727-5.3375,8.6952s-0.93381,1.535-0.93381,2.25c0,0.98788,2.641,1.3,11,1.3,6.05,0,11-0.4132,11-0.91823zm-26.5,66.271c-1.65-0.86193-3.5625-2.2799-4.25-3.1511-1.4846-1.8812-1.6884-10.202-0.25-10.202,0.55,0,1,1.8,1,4s0.23465,4,0.52144,4,2.3209-1.1908,4.5203-2.6463,4.2501-2.3952,4.5571-2.0882-1.5775,1.8098-4.1877,3.3395c-4.1733,2.4457-4.5304,2.9088-2.9599,3.8382,6.0425,3.5758,6.9051,5.9689,1.0488,2.9097zm32.409-1.5683c3.0633-1.9607,3.2286-2.2883,1.6314-3.2332-0.97746-0.57825-2.7363-1.8595-3.9086-2.8471-1.7904-1.5085-1.4515-1.4652,2.1186,0.27032l4.25,2.0661v-10.52c0-5.7862-0.23394-10.52-0.51987-10.52s-2.3534,1.1575-4.5945,2.5722c-2.241,1.4147-4.3321,2.3147-4.6468,2-0.7034-0.7034-0.73821-0.67481,4.6859-3.8487l4.4248-2.5892-3.6748-1.7524c-2.0211-0.96381-3.6748-2.1282-3.6748-2.5875,0-0.45932,1.7766,0.0712,3.948,1.179l3.948,2.0141,0.36706-5.2438,0.36707-5.2438,0.18498,5.2757,0.18498,5.2757,3.0929-1.5994c4.3614-2.2554,4.7248-1.132,0.44977,1.3904l-3.5427,2.0902v12.048,12.048l-3.25,1.9816c-4.4341,2.7035-6.099,2.4988-1.8414-0.22645zm-11.046-24.787c0-0.825,0.66069-2.3735,1.4682-3.4411,1.109-1.4662,1.4682-1.5742,1.4682-0.44113,0,0.825-0.66069,2.3735-1.4682,3.4411-1.109,1.4662-1.4682,1.5742-1.4682,0.44113zm-43.592-9.331c-3.9131-2.19-3.9724-2.3096-4.0694-8.1957-0.07953-4.8293-0.02115-5.0635,0.30479-1.2232,0.22174,2.6125,0.5837,4.75,0.80436,4.75s2.671-1.3383,5.4452-2.974c6.3307-3.7327,6.6699-2.5554,0.40428,1.4031l-4.6362,2.9291,2.1513,1.742c1.1832,0.95812,2.7078,1.9409,3.3879,2.184,0.68014,0.24309,0.99857,0.70413,0.70763,1.0245-0.29095,0.32041-2.3159-0.41752-4.5-1.6398zm74.279-0.78396c3.6593-2.3435,4.0575-3.4892,1.5-4.3157-0.9625-0.31103-3.1-1.726-4.75-3.1444-2.7867-2.3955-2.5952-2.3572,2.6935,0.5392l5.6935,3.1181,0.37622-4.7911,0.37622-4.7911,0.18025,5.5659c0.17783,5.491,0.128,5.5952-3.7059,7.75-4.9363,2.7743-6.667,2.8249-2.3638,0.0691zm-36.671-11.468c0.048-1.1649,0.28494-1.4019,0.60416-0.60417,0.28888,0.72188,0.25335,1.5844-0.079,1.9167-0.33229,0.33229-0.56864-0.25833-0.52522-1.3125zm-41.911-8.599c-0.15719-6.2479,0.0105-6.8057,2.5819-8.5873,1.5125-1.048,3.5609-2.1984,4.5519-2.5566,2.8192-1.0189,0.97615,1.1307-2.5192,2.9382l-3.0904,1.5981,4.6538,2.8966c2.5596,1.5931,4.6538,3.1067,4.6538,3.3634,0,0.67659-3.0396-0.5652-6.5-2.6555l-3-1.8122-0.58189,5.7486-0.58189,5.7486-0.16811-6.6819zm82.832-1.3181c0-4.1034-0.19452-4.1609-4.6846-1.3859-1.8814,1.1627-3.661,1.8737-3.9549,1.5798-0.29383-0.29382,1.3014-1.5827,3.5449-2.8641s4.0826-2.5951,4.0868-2.9193c0.004-0.32422-1.1754-1.1286-2.6215-1.7874-1.4461-0.65888-2.3772-1.45-2.0692-1.7579,0.308-0.308,1.9412,0.25588,3.6292,1.253,2.7453,1.6217,3.0692,2.3179,3.0692,6.5974,0,2.6314-0.225,4.7844-0.5,4.7844s-0.5-1.575-0.5-3.5zm-62.25-7.0738c-0.4125-0.41776-0.75-2.3083-0.75-4.2013,0-3.2384-0.16246-3.4051-2.75-2.8211l-2.75,0.62065,2.75-2.2998c2.1895-1.831,2.75-3.1464,2.75-6.4532,0-2.2844,0.45-4.4315,1-4.7715,0.6104-0.37724,1,1.145,1,3.9073v4.5253l3.5427-2.0902c1.9485-1.1496,3.8052-1.8277,4.126-1.5069,0.32083,0.32083-1.0717,1.5598-3.0945,2.7533l-3.6779,2.17,3.0518,1.8559c1.6785,1.0208,3.0518,2.0454,3.0518,2.277,0,0.73178-4.0062-0.59269-4.5746-1.5124-1.2771-2.0663-2.3367-0.56472-2.6206,3.7136-0.16764,2.5261-0.64229,4.2511-1.0548,3.8333zm41.43-3.7832c-0.15558-4.1922-0.41978-4.7608-1.9302-4.1541-3.912,1.5714-4.6616,1.6059-2.75,0.1268,1.1-0.85114,2.5625-2.0306,3.25-2.6211,0.6875-0.59044,1.25-3.1558,1.25-5.7008,0-5.8584,1.0371-5.0817,1.1565,0.86616,0.08,3.9841,0.45077,4.6415,3.7162,6.5886,2.212,1.3189,2.9675,2.1801,1.9364,2.2071-0.93004,0.02435-1.9691-0.40573-2.309-0.95573-0.33992-0.55-1.2418-1-2.0042-1-0.93446,0-1.5082,1.5479-1.7607,4.75l-0.37454,4.75-0.18025-4.857zm-5.9302-9.6321c-4.5608-2.7808-4.0551-3.4624,0.75-1.011,3.7738,1.9252,4.9447,3.0047,3.25,2.9963-0.4125-0.0021-2.2125-0.89544-4-1.9853zm-35.5-8.5864c-0.4125-0.41686-0.75-3.3001-0.75-6.4071,0-5.5218,0.08764-5.6984,3.8862-7.8333,4.9356-2.7739,6.6673-2.8251,2.365-0.06986-3.7328,2.3906-3.5265,3.1624,1.5636,5.8509,2.0269,1.0705,3.0102,1.9647,2.1852,1.9869-0.825,0.02225-2.9406-0.83795-4.7014-1.9116l-3.2014-1.952-0.29858,5.547c-0.16422,3.0509-0.63608,5.206-1.0486,4.7891zm41.443-4.6746c-0.10597-3.1625-0.39196-5.75-0.63552-5.75s-2.0628,0.95579-4.0427,2.124-3.8492,1.8746-4.1541,1.5698c-0.30482-0.30481,1.3775-1.5397,3.7385-2.7442,4.5535-2.323,4.5676-2.2186-0.7623-5.6224-1.733-1.1067-1.7238-1.146,0.16338-0.69637,1.1,0.2621,3.0364,1.2598,4.3031,2.2172,2.0661,1.5616,2.266,2.4049,1.9427,8.1964l-0.36038,6.4557-0.19268-5.75zm-21.004-12.035c-0.18081-5.5322-0.28028-5.7364-2.2747-4.669-3.0554,1.6352-3.4044,0.50531-0.44332-1.4349,2.3318-1.5278,2.7795-1.5328,5.6241-0.06172,1.6999,0.87904,2.8624,1.8265,2.5834,2.1055-0.27901,0.27901-1.4233,0.01707-2.5428-0.58208-1.9225-1.0289-2.0555-0.76983-2.3966,4.669l-0.36107,5.7583-0.18909-5.7852z"
       fill-opacity="0.99215686"
       fill="#FFF" />
    <animate
       id="animate3675"
       attributeType="XML"
       attributeName="opacity"
       dur="2s"
       values="0;0;0;0;1" />
  </g>
</svg>
